<svg width="272" height="320" viewBox="0 0 272 320" fill="none" xmlns="http://www.w3.org/2000/svg"><path fill-rule="evenodd" clip-rule="evenodd" d="M227.214 185.15L198.87 168.674L242.745 143.347L271.11 159.823L227.214 185.15Z" fill="#74B5E0"/><path fill-rule="evenodd" clip-rule="evenodd" d="M203.617 221.3L175.252 204.825L175.212 185.432L203.557 201.908L203.617 221.3Z" fill="#56BAFD"/><path fill-rule="evenodd" clip-rule="evenodd" d="M203.557 201.908L175.212 185.432L215.426 75.6169L243.791 92.0968L203.557 201.908Z" fill="#92D4FF"/><path fill-rule="evenodd" clip-rule="evenodd" d="M200.459 117.08L172.114 100.6L172.053 78.2039L200.419 94.6837L200.459 117.08Z" fill="#56BAFD"/><path fill-rule="evenodd" clip-rule="evenodd" d="M200.418 94.6838L172.053 78.2039L240.109 38.9093L268.474 55.3892L200.418 94.6838Z" fill="#E3F4FF"/><path fill-rule="evenodd" clip-rule="evenodd" d="M268.474 55.3892L268.515 72.3901L227.214 185.15L271.11 159.823L271.17 182.334L203.617 221.3L203.557 201.908L243.791 92.0967L200.459 117.08L200.419 94.6838L268.474 55.3892Z" fill="#C6E6FC"/><path fill-rule="evenodd" clip-rule="evenodd" d="M144.307 188.592L115.464 171.834L115.669 239.534L144.513 256.294L144.307 188.592Z" fill="#69C1FC"/><mask id="a" maskUnits="userSpaceOnUse" x="115" y="171" width="30" height="86"><path fill-rule="evenodd" clip-rule="evenodd" d="M144.307 188.592L115.464 171.834L115.669 239.534L144.513 256.294L144.307 188.592Z" fill="#92D4FF"/></mask><g mask="url(#a)"><path d="M219.539 193.264L77.9434 255.438V285.118H219.539V193.264Z" fill="url(#b)" style="mix-blend-mode:multiply" opacity=".5"/></g><path fill-rule="evenodd" clip-rule="evenodd" d="M191.584 98.3515L162.746 81.5918L140.45 94.4643L169.287 111.224L191.584 98.3515Z" fill="#E3F4FF"/><path fill-rule="evenodd" clip-rule="evenodd" d="M169.287 111.224L140.45 94.4644 125.346 137.959 154.182 154.717 169.287 111.224zM117.326 143.033L88.4794 126.273 115.464 171.835 144.307 188.592 117.326 143.033z" fill="#92D4FF"/><path fill-rule="evenodd" clip-rule="evenodd" d="M139.613 130.158L110.779 113.399L88.4793 126.273L117.326 143.033L139.613 130.158Z" fill="#E3F4FF"/><path fill-rule="evenodd" clip-rule="evenodd" d="M139.613 130.158L117.326 143.033L144.307 188.592L144.513 256.294L164.432 244.792L164.215 177.084L191.584 98.3514L169.287 111.224L154.182 154.717L139.613 130.158Z" fill="#C6E6FC"/><path fill-rule="evenodd" clip-rule="evenodd" d="M71.7683 251.08L43.5754 234.697L63.0721 267.59L91.265 283.975L71.7683 251.08Z" fill="#9194C5"/><path fill-rule="evenodd" clip-rule="evenodd" d="M60.7919 232.551L32.599 216.165L2.58208 302.515L30.775 318.9L60.7919 232.551Z" fill="#C5E8FF"/><path fill-rule="evenodd" clip-rule="evenodd" d="M108.167 146.378L79.9746 129.994L58.1759 142.578L86.3708 158.963L108.167 146.378Z" fill="#E3F4FF"/><path fill-rule="evenodd" clip-rule="evenodd" d="M86.3708 158.963L58.1759 142.578L43.4214 185.034L71.6144 201.416L86.3708 158.963Z" fill="#92D4FF"/><path fill-rule="evenodd" clip-rule="evenodd" d="M56.6278 176.135L28.4369 159.751L6.63819 172.333L34.8311 188.72L56.6278 176.135Z" fill="#E3F4FF"/><path fill-rule="evenodd" clip-rule="evenodd" d="M34.8311 188.72L6.6382 172.333L32.599 216.164L60.7919 232.551L34.8311 188.72Z" fill="#92D4FF"/><path fill-rule="evenodd" clip-rule="evenodd" d="M60.792 232.551L30.775 318.9L52.5717 306.315L71.7683 251.08L91.265 283.975L113.062 271.39L82.5907 219.949L108.167 146.378L86.3708 158.963L71.6143 201.416L56.6279 176.135L34.8312 188.72L60.792 232.551Z" fill="#C6E6FC"/><path d="M176.459 99.7518C180.842 89.907 168.506 80.1085 152.672 76.1662C136.838 72.2239 124.188 78.2489 119.805 88.0937C115.422 97.9385 126.191 119.474 141.252 118.799C156.313 118.124 172.076 109.597 176.459 99.7518Z" fill="#352C6E" opacity=".2" filter="url(#c)"/><path d="M111.568 117.378L120.06 122.182 120.06 115.53 111.568 110.726 111.568 117.378zM166.539 30.4508L175.031 35.2549 175.031 28.6029 166.539 23.7987 166.539 30.4508z" fill="#066BC6"/><path d="M141.159 123.412C119.482 129.539 101.519 117.742 101.519 93.2512C101.519 68.76 118.698 38.979 139.89 26.7335C161.082 14.4879 177.917 24.4506 186.154 51.9922C186.154 76.4834 162.351 111.167 141.159 123.412Z" fill="#066BC6"/><path d="M147.783 119.906C126.591 132.151 109.412 122.224 109.412 97.7331C109.412 73.2419 126.591 43.4609 147.783 31.2153C168.975 18.9697 186.154 28.8967 186.154 53.3879C186.154 77.879 168.975 107.66 147.783 119.906Z" fill="#1D9EF9"/><path d="M149.691 50.0255C154.936 47.0005 160.018 46.1721 164.069 47.6813C168.121 49.1905 170.892 52.944 171.911 58.3023C172.929 63.6606 172.132 70.2923 169.655 77.0674C167.178 83.8426 163.175 90.3421 158.327 95.4586C153.479 100.575 148.086 103.992 143.068 105.127C138.049 106.263 133.715 105.046 130.805 101.685C127.894 98.3236 126.586 93.0257 127.104 86.6937C127.622 80.3617 129.934 73.3873 133.646 66.9589C137.904 59.5877 143.675 53.4971 149.691 50.0255V50.0255ZM169.129 66.6075L161.283 71.1412C161.205 73.7898 160.949 76.5298 160.518 79.3358L167.344 75.3915C168.318 72.3867 168.896 69.4248 169.05 66.6528L169.129 66.6075ZM148.102 63.842L148.102 55.364C146.003 57.6195 144.179 61.7791 142.924 66.8342L148.102 63.842ZM142.08 70.9939C141.616 73.7605 141.347 76.4576 141.276 79.0525L148.102 75.1082L148.102 67.5143L142.08 70.9939ZM151.279 53.5278L151.279 62.0058L156.458 59.0136C155.222 55.398 153.378 53.3578 151.279 53.5278ZM151.279 65.6781L151.279 73.272L158.105 69.3277C158.025 66.8211 157.756 64.436 157.301 62.1985L151.279 65.6781ZM161.185 67.5483L169.031 63.0146C168.864 60.4837 168.293 58.2421 167.344 56.3954L160.4 60.4077C160.855 62.6452 161.124 65.0303 161.204 67.5369L161.185 67.5483ZM158.125 72.966L151.279 76.9217L151.279 84.6743L157.36 81.1607C157.81 78.347 158.066 75.605 158.125 72.966V72.966ZM151.279 88.2559L151.279 97.0512C153.437 94.7391 155.3 90.4434 156.536 85.2183L151.279 88.2559ZM148.102 98.8874L148.102 90.16L142.845 93.1976C144.081 97.0172 145.944 99.1141 148.102 98.9554L148.102 98.8874ZM148.102 86.4424L148.102 78.7578L141.256 82.7134C141.315 85.2846 141.571 87.7308 142.021 90.024L148.102 86.4424ZM138.177 84.4249L130.331 88.9586C130.487 91.5483 131.059 93.844 132.018 95.7365L138.942 91.7355C138.511 89.4277 138.255 86.9832 138.177 84.4249V84.4249ZM138.177 80.7753C138.258 78.1677 138.527 75.4643 138.981 72.694L132.037 76.7063C131.057 79.6696 130.453 82.5977 130.253 85.3543L138.177 80.7753ZM133.94 71.8893L139.883 68.455C140.607 65.1928 141.741 61.8552 143.237 58.5829C139.52 62.2737 136.297 66.9508 133.999 71.9913L133.94 71.8893ZM156.203 51.091C157.682 52.695 158.796 54.7789 159.498 57.2568L165.382 53.8565C163.069 51.5476 159.865 50.6358 156.183 51.2383L156.203 51.091ZM165.618 80.0386L159.733 83.4388C159.009 86.8088 157.847 90.264 156.301 93.651C160.089 89.8976 163.369 85.1296 165.696 79.9932L165.618 80.0386ZM143.159 101.245C141.612 99.6454 140.451 97.5324 139.726 94.9997L133.842 98.4C136.17 100.846 139.45 101.824 143.237 101.2L143.159 101.245Z" fill="#fff"/><defs><filter id="c" x="114.818" y="70.944" width="66.535" height="51.87" filterUnits="userSpaceOnUse" color-interpolation-filters="sRGB"><feFlood flood-opacity="0" result="BackgroundImageFix"/><feBlend in="SourceGraphic" in2="BackgroundImageFix" result="shape"/><feGaussianBlur stdDeviation="2" result="effect1_foregroundBlur"/></filter><linearGradient id="b" x1="78.019" y1="261.995" x2="219.52" y2="261.995" gradientUnits="userSpaceOnUse"><stop stop-color="#C4C9E4"/><stop offset=".095" stop-color="#CED2E8"/><stop offset=".409" stop-color="#E9EBF5"/><stop offset=".687" stop-color="#F9FAFC"/><stop offset=".899" stop-color="#fff"/></linearGradient></defs></svg>