<svg width="295" height="276" viewBox="0 0 295 276" fill="none" xmlns="http://www.w3.org/2000/svg"><path d="M135.105 238.901H26.8669L35.2116 257.292H135.105V238.901Z" fill="url(#a)"/><path d="M111.835 214.759H11.0508L12.0229 226.425H111.835V214.759Z" fill="url(#b)"/><path d="M10.2868 197.746C6.88413 195.478 1.61803 199.367 0.240744 203.66C0.159727 205.524 1.53709 208.684 1.53709 208.684C1.53709 208.684 7.12718 221.241 9.07158 223.348C11.016 225.454 18.7126 228.533 22.4393 225.373C25.1129 221.889 19.7658 219.783 18.7936 216.38C17.4973 211.924 18.0644 208.278 16.8492 204.957C15.958 202.121 10.2868 197.746 10.2868 197.746Z" fill="url(#c)"/><path d="M0.646176 202.851C0.56516 202.851 0.56516 202.851 0.646176 202.851C0.56516 204.795 1.94252 207.874 1.94252 207.874C1.94252 207.874 7.53261 220.431 9.47701 222.538C11.4214 224.644 19.118 227.723 22.9257 224.563C23.0878 224.401 23.1688 224.158 23.3308 223.996C23.2498 224.401 23.0068 224.887 22.6828 225.373C18.956 228.533 11.1784 225.535 9.31501 223.348C7.37062 221.241 1.78043 208.684 1.78043 208.684C1.78043 208.684 0.403166 205.524 0.484183 203.661C0.403166 203.418 0.484143 203.094 0.646176 202.851Z" fill="#131147"/><path d="M19.5227 200.582C17.9024 199.448 11.0969 197.017 11.0969 197.017C11.0969 197.017 10.5298 197.827 9.55761 198.151C9.47659 198.151 9.39565 198.232 9.23362 198.232C7.53227 198.232 4.53465 199.853 6.39804 203.174C10.0438 209.737 18.4695 209.494 17.4973 206.415C16.9302 204.309 18.6315 201.878 19.5227 200.582Z" fill="#fff"/><path d="M17.7408 208.116C17.9839 207.063 18.3079 204.876 15.6343 204.471C12.8797 204.066 9.7201 205.362 9.96315 206.982C10.5303 210.385 17.4978 209.17 17.7408 208.116Z" fill="url(#d)"/><path d="M7.37018 197.098C10.5298 192.885 33.8626 164.772 44.7998 159.182C41.0731 143.708 31.5131 123.535 34.5917 106.926H58.0056C58.0056 106.926 71.8594 156.103 63.0286 167.77C56.3042 176.682 26.5711 199.366 15.4718 206.496C11.583 206.577 5.9929 200.419 7.37018 197.098Z" fill="url(#e)"/><path d="M27.2207 237.93C23.1698 238.578 22.0356 245.06 24.061 249.11C25.2763 250.488 28.4359 251.784 28.4359 251.784C28.4359 251.784 41.1555 256.969 43.9911 257.212C46.8267 257.455 53.227 256.402 53.7131 251.46C53.227 248.462 50.7155 247.652 47.6368 245.87C43.667 243.52 40.1833 240.036 36.9427 238.497C34.3501 237.201 27.2207 237.93 27.2207 237.93Z" fill="url(#f)"/><path d="M43.91 255.996C40.9935 255.753 27.8688 250.406 27.8688 250.406C27.8688 250.406 24.7902 249.11 23.4939 247.732C23.6559 248.219 23.8179 248.705 24.061 249.11C25.2762 250.487 28.4359 251.783 28.4359 251.783C28.4359 251.783 41.1555 256.968 43.991 257.211C46.8266 257.454 53.2269 256.401 53.713 251.459C53.713 251.378 53.632 251.297 53.632 251.135C52.2548 255.267 46.5836 256.158 43.91 255.996Z" fill="#131147"/><path d="M35.8894 233.635C33.945 233.959 27.3017 236.876 27.3017 236.876C27.3017 236.876 27.3827 237.848 26.9776 238.739C26.8966 238.82 26.8966 238.902 26.8156 238.983C25.6003 240.117 24.3041 242.223 28.0308 243.357C35.1603 245.626 41.2366 240.846 38.482 239.226C36.5376 238.091 36.1325 235.175 35.8894 233.635Z" fill="#fff"/><path d="M39.6967 240.198C39.1296 239.469 37.9143 237.606 35.7269 239.145C33.4584 240.765 32.8913 242.71 33.2154 244.33C33.4584 245.95 38.1574 244.735 38.4005 244.492C38.4815 244.249 39.6967 240.198 39.6967 240.198Z" fill="url(#g)"/><path d="M37.4285 113.65C37.4285 135.606 37.6716 152.781 37.6716 171.982C37.6716 193.938 39.3728 221.159 39.1298 239.55C35.5651 243.925 26.6533 242.791 24.7089 239.469C22.3594 222.78 17.1743 197.34 18.4706 179.112C12.8804 155.131 7.53335 126.856 9.80181 107.979C15.1489 109.599 32.1624 111.949 37.4285 113.65Z" fill="url(#h)"/><path d="M64.1633 52.0776C72.0219 56.4525 79.6375 80.8385 83.0402 85.2945C86.4429 89.7504 92.7622 95.4215 92.7622 95.4215C89.1165 98.5002 81.0958 102.956 81.0958 102.956C77.207 99.7155 70.7256 100.364 63.0291 81.0006C55.2515 61.5566 64.1633 52.0776 64.1633 52.0776Z" fill="#E90E0E"/><path d="M23.1683 60.0981C27.7863 54.2649 39.2096 46.1633 46.7441 45.5961C59.4637 44.6239 69.0238 54.346 70.8871 63.987C72.5075 72.4937 56.7902 115.27 59.5448 126.532C58.1675 132.446 48.3645 135.687 44.2326 136.578C26.2469 140.548 8.09918 138.036 7.93715 126.532C7.12699 88.454 16.4439 66.8225 23.1683 60.0981Z" fill="url(#i)"/><path fill-rule="evenodd" clip-rule="evenodd" d="M173.138 103.623L119.753 218.779L56.3447 185.48L56.5599 103.408L173.138 103.623Z" fill="#CFE3F0"/><path d="M63.5152 122.033L106.164 146.496C108.035 147.568 109.551 150.182 109.551 152.325V201.253C109.551 203.397 108.035 204.272 106.164 203.194L63.5152 178.73C61.6441 177.658 60.1282 175.045 60.1282 172.901V123.973C60.1282 121.83 61.6441 120.961 63.5152 122.033Z" fill="#fff" opacity=".5"/><path d="M84.5199 187.126C97.0102 194.354 107.147 188.501 107.233 174.244C107.269 159.9 97.2149 142.486 84.7246 135.258C72.2342 128.031 62.0974 133.883 62.0616 148.227C61.9758 162.485 72.0295 179.898 84.5199 187.126Z" fill="url(#j)"/><path d="M94.0823 154.859L81.6968 162.368L75.0376 151.24L70.9614 153.596L80.8399 170.362L97.3027 160.496L94.0823 154.859Z" fill="#fff"/><path fill-rule="evenodd" clip-rule="evenodd" d="M182.3 103.408L182.085 180.263L119.753 218.779L119.968 141.891L182.3 103.408Z" fill="#ECF6FC"/><path d="M175.086 121.11L132.437 145.574C130.566 146.646 129.05 149.259 129.05 151.403V200.331C129.05 202.474 130.566 203.35 132.437 202.271L175.086 177.808C176.957 176.736 178.473 174.123 178.473 171.979V123.051C178.473 120.907 176.957 120.038 175.086 121.11Z" fill="#E3F3FE"/><path d="M115.004 217.555C114.782 217.424 113.895 216.751 113.673 216.62V138.849C113.895 139.016 114.658 139.575 114.88 139.697C114.945 139.741 115.004 139.785 115.102 139.828C115.291 139.916 115.48 140.038 115.669 140.126C115.734 140.169 115.793 140.213 115.891 140.213C116.015 140.257 116.145 140.3 116.269 140.344C116.367 140.388 116.458 140.432 116.556 140.432C116.68 140.475 116.81 140.519 116.967 140.563C117.065 140.606 117.156 140.606 117.254 140.65C117.541 140.738 117.795 140.781 118.075 140.816C118.173 140.816 118.264 140.86 118.33 140.86C118.486 140.86 118.649 140.904 118.806 140.904C118.93 140.904 119.027 140.904 119.125 140.904C119.256 140.904 119.38 140.904 119.504 140.904C119.627 140.904 119.725 140.904 119.849 140.904C119.98 140.904 120.104 140.904 120.195 140.86C120.325 140.86 120.417 140.86 120.547 140.816C120.671 140.816 120.801 140.772 120.893 140.772C120.984 140.772 121.114 140.729 121.212 140.729C121.343 140.685 121.467 140.685 121.59 140.641C121.688 140.598 121.78 140.598 121.877 140.554C122.034 140.51 122.197 140.467 122.321 140.388C122.419 140.344 122.477 140.344 122.575 140.3C122.829 140.169 123.116 140.091 123.338 139.96C123.462 139.916 123.592 139.828 123.684 139.75C123.749 139.706 123.814 139.662 123.873 139.619C124.062 139.488 125.079 138.727 125.236 138.596V216.541C125.079 216.672 124.16 217.354 123.997 217.477C123.932 217.52 123.873 217.564 123.808 217.608C123.71 217.651 123.586 217.739 123.488 217.783H123.456C123.201 217.914 122.947 218.036 122.693 218.123C122.66 218.123 122.66 218.167 122.627 218.167C122.562 218.211 122.503 218.211 122.438 218.255C122.314 218.298 122.151 218.342 121.995 218.386C121.962 218.386 121.93 218.429 121.864 218.429C121.799 218.473 121.74 218.473 121.675 218.473C121.551 218.517 121.421 218.517 121.297 218.561C121.232 218.561 121.199 218.604 121.14 218.604C121.075 218.604 121.017 218.604 120.951 218.648C120.827 218.692 120.73 218.692 120.606 218.692C120.54 218.692 120.482 218.735 120.417 218.735C120.351 218.735 120.293 218.735 120.227 218.735C120.104 218.735 120.006 218.735 119.882 218.779C119.817 218.779 119.758 218.779 119.693 218.779C119.627 218.779 119.595 218.779 119.536 218.779C119.406 218.779 119.282 218.779 119.158 218.779C119.093 218.779 119.034 218.779 118.969 218.779C118.936 218.779 118.871 218.779 118.838 218.779C118.682 218.779 118.519 218.735 118.362 218.735C118.297 218.735 118.206 218.735 118.173 218.692C118.141 218.692 118.141 218.692 118.108 218.692C117.821 218.648 117.567 218.604 117.286 218.517H117.254C117.156 218.473 117.097 218.473 116.999 218.429C116.869 218.386 116.745 218.342 116.621 218.298C116.523 218.255 116.432 218.211 116.334 218.211C116.21 218.167 116.08 218.123 115.956 218.08C115.923 218.08 115.891 218.036 115.858 218.036C115.793 217.992 115.76 217.992 115.734 217.992C115.545 217.905 115.356 217.817 115.193 217.695C115.128 217.634 115.062 217.59 115.004 217.555Z" fill="#DEEFFB"/><path fill-rule="evenodd" clip-rule="evenodd" d="M177.725 98.2294C181.718 100.536 181.725 106.297 177.738 108.613L121.637 141.203C119.779 142.283 117.485 142.286 115.624 141.212L59.1 108.588C55.1064 106.283 55.0972 100.522 59.0835 98.2042L115.184 65.5864C117.044 64.5054 119.339 64.5022 121.201 65.5779L177.725 98.2294Z" fill="#EBF7FF"/><path d="M121.817 114.524L113.518 119.126C112.785 119.526 111.608 119.526 110.876 119.126L78.9993 101.462L121.2 78.0937L149.587 93.8152C150.319 94.2147 150.319 94.8761 149.587 95.2757L121.817 110.666L121.817 114.524Z" fill="#FCBA06"/><path d="M121.818 110.666L149.588 95.2755C149.918 95.0826 150.09 94.8484 150.119 94.6003L150.133 94.6003L150.133 95.2755C150.133 95.5373 149.947 95.7991 149.588 95.992L121.818 111.383L121.818 110.666Z" fill="#E19100"/><path d="M79.0142 101.462L110.891 119.127C111.623 119.526 112.8 119.526 113.533 119.127L121.832 114.525L121.832 115.241L113.533 119.843C112.8 120.243 111.623 120.243 110.891 119.843L79.0142 102.179L79.0142 101.462Z" fill="url(#k)"/><path d="M109.24 115.048L145.711 94.8346L118.343 79.6643L81.8718 99.8775L109.24 115.048Z" fill="#fff"/><path d="M110.23 109.95L102.29 114.359L79.0145 101.462L110.23 109.95Z" fill="#DEEFFB"/><path d="M110.23 109.233C109.498 109.633 108.378 109.633 107.387 109.344L78.9998 100.746L121.2 77.3635L149.587 85.9614C150.521 86.2645 150.32 87.0223 149.587 87.4219L110.23 109.233Z" fill="#FFCC03"/><path d="M107.401 109.357C108.378 109.647 109.512 109.647 110.244 109.247L149.602 87.4495C149.975 87.2428 150.205 86.9396 150.219 86.6641L150.219 87.3806C150.205 87.6699 149.961 87.9593 149.602 88.1659L110.244 109.964C109.512 110.363 108.392 110.363 107.401 110.074L79.0141 101.476L79.0141 100.76L107.401 109.357Z" fill="url(#l)"/><path d="M112.843 94.3249L113.604 93.8977L115.944 94.5315C116.763 94.2422 117.911 94.1595 118.687 94.4075C119.548 94.6831 119.792 95.2342 119.017 95.6751C118.227 96.1161 116.978 96.3227 115.844 95.9921C115.126 95.7854 114.839 95.3445 115.198 94.9587L112.843 94.3249Z" fill="#E19100"/><path d="M48.5273 143.303C49.0134 144.032 50.3906 152.134 44.3144 153.349C41.6408 151.323 42.046 143.465 48.5273 143.303Z" fill="#C85A2B"/><path d="M45.1245 142.655L48.5273 144.68C50.4717 145.652 55.8187 145.652 59.2214 143.303C62.6241 140.953 62.138 146.786 58.4923 147.759C54.7655 148.731 54.5224 150.189 59.7885 152.214C62.219 153.187 64.6495 155.05 65.3787 156.184C66.999 158.534 68.2953 163.233 64.8116 164.772C61.976 165.987 55.1706 161.207 53.0642 159.83C47.312 156.103 48.7703 155.131 45.6106 152.782C42.451 150.432 41.6409 150.351 41.6409 150.351L45.1245 142.655Z" fill="#FCD1A9"/><path d="M31.3518 60.4225C27.544 58.8832 20.7386 57.9109 16.6878 69.5773C14.4193 76.2207 12.3939 99.4725 15.3915 111.22C19.4424 127.342 29.5694 143.951 44.3144 153.349C42.37 150.108 45.1246 144.113 48.5273 143.302C38.4003 131.798 31.2708 116.81 31.2708 109.438C31.2708 97.2851 33.5392 78.5702 34.4304 74.8434C36.2938 66.9848 35.0785 61.9618 31.3518 60.4225Z" fill="url(#m)"/><path d="M45.1235 28.7444C44.6374 24.6126 58.8964 33.0383 58.3293 38.4664C57.8432 42.9223 56.5469 46.8111 61.0838 49.5657C62.6232 50.7809 67.8892 59.4497 59.7875 59.5307C48.2021 59.6928 45.0425 56.452 36.6978 49.3226C41.6398 46.406 46.5818 42.1122 45.1235 28.7444Z" fill="#FCD1A9"/><path d="M41.7209 26.3139L47.4731 18.1311H72.6693V33.2813C72.6693 41.626 66.9981 48.4313 60.1117 48.4313C53.3873 48.4313 47.068 42.8413 46.7439 34.8206L43.6654 33.7674L41.7209 26.3139Z" fill="#FCD1A9"/><path d="M59.5436 52.5637C53.5483 52.5637 46.0948 42.9227 46.7429 34.9021C47.067 42.4366 53.3053 47.8647 59.6246 48.5128C60.1917 48.9989 60.5157 49.242 61.0018 49.5661C61.0828 49.6471 61.2448 49.8091 61.4069 49.9712C61.4069 51.1864 60.5968 52.5637 59.5436 52.5637Z" fill="#F2C39D"/><path d="M69.0418 6.14859C71.4582 5.33854 71.3511 3.23005 60.888 1.21685C54.6507 -0.796354 46.2945 -0.49854 41.4617 3.52786C34.8197 9.06714 33.6174 15.9168 36.129 24.0768C38.6407 32.1296 44.1757 39.5868 44.1757 39.5868C45.0803 40.2896 46.2945 35.3579 44.4733 33.3447C44.1757 33.1422 43.6639 32.4393 43.1639 31.0336C40.0453 22.8736 45.3779 23.3859 46.1874 24.0887C47.9014 24.4937 45.7826 31.939 50.3178 30.5333C52.5319 29.9258 51.3296 23.6837 51.0201 21.468C51.3177 21.468 51.7224 21.468 52.0319 21.5633C56.1624 23.1714 69.4346 22.8736 61.4951 19.3476C66.5302 18.6447 73.7674 19.9551 75.5767 16.429C77.7908 12.2954 72.7557 8.76932 69.0418 6.14859Z" fill="#542F57"/><path d="M51.5323 26.9946C51.6275 30.3182 53.8415 38.776 58.6743 38.6807C61.293 38.5854 62.1025 37.1202 63.0071 35.2619C63.8761 33.4631 68.6493 32.2718 73.6844 32.2718C73.6844 45.9711 77.684 56.4422 73.9225 62.5056C69.1969 70.1176 55.0081 64.8285 52.3655 57.8121C48.7231 52.4396 47.1042 27.8166 47.1042 27.8166L51.5323 26.9946Z" fill="#542F57"/><path d="M220.607 223.207C224.09 212.594 222.47 200.441 219.877 188.127C212.1 188.289 197.436 183.914 189.658 184.076C192.575 207.408 199.056 227.987 202.945 250.59C207.158 272.546 212.1 288.749 216.151 306.978C217.69 310.381 224.981 308.841 224.981 306.816C226.035 289.964 225.306 270.439 220.364 250.995C220.688 242.246 219.229 231.957 220.607 223.207Z" fill="#20196F"/><path d="M199.947 239.005C206.591 212.431 221.498 227.662 219.878 188.126C212.181 186.992 184.716 204.33 177.02 203.196C172.483 231.794 173.455 249.456 173.617 272.465C174.103 294.825 175.561 310.137 176.696 328.852C177.587 332.498 185.851 332.174 185.851 329.987C189.658 313.54 192.737 293.529 190.955 273.518C193.223 262.5 197.436 250.752 199.947 239.005Z" fill="url(#n)"/><path d="M215.909 229.121C203.352 236.818 183.665 241.517 171.026 235.927C169.73 228.554 181.153 179.701 173.619 166.9C171.998 164.065 166.651 166.414 165.274 163.336C161.547 155.477 158.063 139.031 158.063 136.519C158.063 131.172 162.357 125.663 166.732 122.746C172.808 118.696 181.315 113.348 188.931 114.807C205.458 119.425 217.125 162.039 229.277 211.379C227.981 217.05 223.444 224.584 215.909 229.121Z" fill="url(#o)"/><path d="M182.53 179.701C183.34 173.625 177.02 162.85 173.456 161.634C169.891 160.419 166.731 158.961 166.731 154.829C166.731 150.697 168.433 144.216 167.541 139.274L158.306 138.707C159.197 144.054 162.194 156.692 165.273 163.336C166.731 166.414 171.997 164.065 173.618 166.9C181.152 179.782 169.729 228.554 171.025 235.926C171.025 235.926 175.643 212.513 177.02 203.277C178.479 193.96 181.719 185.777 182.53 179.701Z" fill="url(#p)"/><path d="M186.094 118.614C180.99 115.212 181.314 112.538 181.881 107.596 182.692 105.004 183.178 102.168 183.097 99.1705 182.692 88.3953 175.481 79.2404 167.055 80.1316 150.123 81.9139 153.445 90.7448 153.85 101.601 154.255 111.647 159.035 118.371 166.65 119.182 166.731 120.802 166.245 122.341 164.139 123.881 169.81 126.959 178.641 125.339 182.205 123.881 185.608 122.503 188.444 120.883 186.094 118.614zM114.8 181.402C113.342 181.564 112.207 177.918 109.777 177.675 107.346 177.351 102.161 176.541 102.242 178.08 102.323 179.296 106.779 179.134 106.131 179.782 104.43 181.645 100.217 179.782 99.2448 178.242 98.2726 176.622 96.8143 176.541 96.8953 178.161 97.0574 179.782 97.9485 187.073 103.863 188.694 109.696 190.314 116.501 189.342 116.501 189.342L114.8 181.402z" fill="#FCD1A9"/><path d="M114.476 189.828C114.476 189.828 109.291 186.425 114.071 180.511C131.004 177.513 152.068 158.393 157.172 135.708C160.332 126.878 170.216 133.035 168.19 144.296C164.95 161.958 144.29 188.936 114.476 189.828Z" fill="url(#q)"/><path fill-rule="evenodd" clip-rule="evenodd" d="M195.868 100.491C202.952 106.351 206.891 116.818 203.688 122.774C200.801 128.168 193.66 131.327 195.868 134.743C197.655 137.597 201.901 140.395 196.863 144.952C194.243 147.284 187.886 153.61 174.923 150.346C162.275 147.187 148.996 136.351 159.646 124.591C170.879 112.155 164.321 109.406 157.859 99.6635C154.447 94.4786 151.406 84.2698 154.341 80.4836C159.331 73.9564 162.687 78.6669 167.459 76.3358C176.645 71.9307 184.15 75.0898 188.501 81.9306C192.35 88.1524 190.248 95.8773 195.868 100.491Z" fill="url(#r)"/><defs><linearGradient id="a" x1="26.845" y1="248.119" x2="135.097" y2="248.119" gradientUnits="userSpaceOnUse"><stop stop-color="#C4CAE9"/><stop offset=".095" stop-color="#CED3ED"/><stop offset=".409" stop-color="#E9EBF7"/><stop offset=".687" stop-color="#F9FAFD" stop-opacity="0"/><stop offset=".899" stop-color="#fff" stop-opacity="0"/></linearGradient><linearGradient id="b" x1="11.03" y1="220.606" x2="111.827" y2="220.606" gradientUnits="userSpaceOnUse"><stop stop-color="#C4CAE9"/><stop offset=".095" stop-color="#CED3ED"/><stop offset=".409" stop-color="#E9EBF7"/><stop offset=".687" stop-color="#F9FAFD" stop-opacity="0"/><stop offset=".899" stop-color="#fff" stop-opacity="0"/></linearGradient><linearGradient id="c" x1="17.192" y1="226.051" x2="5.009" y2="196.342" gradientUnits="userSpaceOnUse"><stop stop-color="#20196F"/><stop offset=".512" stop-color="#302B8E"/><stop offset="1" stop-color="#423EAF"/></linearGradient><linearGradient id="d" x1="21.188" y1="224.413" x2="9.005" y2="194.703" gradientUnits="userSpaceOnUse"><stop stop-color="#20196F"/><stop offset=".512" stop-color="#302B8E"/><stop offset="1" stop-color="#423EAF"/></linearGradient><linearGradient id="e" x1="10.357" y1="129.133" x2="51.849" y2="171.786" gradientUnits="userSpaceOnUse"><stop stop-color="#235DA3"/><stop offset="1" stop-color="#123A76"/></linearGradient><linearGradient id="f" x1="48.549" y1="255.653" x2="22.366" y2="238.554" gradientUnits="userSpaceOnUse"><stop stop-color="#20196F"/><stop offset=".846" stop-color="#322A8E"/><stop offset="1" stop-color="#362E94"/></linearGradient><linearGradient id="g" x1="51.098" y1="251.748" x2="24.915" y2="234.65" gradientUnits="userSpaceOnUse"><stop stop-color="#20196F"/><stop offset=".846" stop-color="#322A8E"/><stop offset="1" stop-color="#362E94"/></linearGradient><linearGradient id="h" x1="10.894" y1="137.961" x2="48.611" y2="152.553" gradientUnits="userSpaceOnUse"><stop stop-color="#235DA3"/><stop offset="1" stop-color="#123A76"/></linearGradient><linearGradient id="i" x1="43.473" y1="54.414" x2="23.881" y2="158.862" gradientUnits="userSpaceOnUse"><stop stop-color="#FF4D00"/><stop offset="1" stop-color="#FF8484"/></linearGradient><linearGradient id="j" x1="52.467" y1="197.959" x2="127.188" y2="108.413" gradientUnits="userSpaceOnUse"><stop offset=".013" stop-color="#0065AC"/><stop offset=".233" stop-color="#1D9EF9"/><stop offset=".445" stop-color="#5FBDFF"/><stop offset=".789" stop-color="#5FBDFF"/><stop offset="1" stop-color="#B8D3E7"/></linearGradient><linearGradient id="k" x1="121.819" y1="110.804" x2="79.013" y2="110.804" gradientUnits="userSpaceOnUse"><stop offset=".194" stop-color="#E19100"/><stop offset=".273" stop-color="#BA6F02"/></linearGradient><linearGradient id="l" x1="150.215" y1="98.46" x2="79.013" y2="98.46" gradientUnits="userSpaceOnUse"><stop offset=".554" stop-color="#E19100"/><stop offset=".608" stop-color="#BA6F02"/></linearGradient><linearGradient id="m" x1="23.16" y1="93.497" x2="62.976" y2="131.024" gradientUnits="userSpaceOnUse"><stop stop-color="#FF7C47"/><stop offset=".187" stop-color="#FF9063"/><stop offset=".662" stop-color="#FF7936"/><stop offset="1" stop-color="#FB944B"/></linearGradient><linearGradient id="n" x1="173.445" y1="259.878" x2="220.002" y2="259.878" gradientUnits="userSpaceOnUse"><stop stop-color="#423EAF"/><stop offset=".244" stop-color="#38339C"/><stop offset=".732" stop-color="#27207B"/><stop offset="1" stop-color="#20196F"/></linearGradient><linearGradient id="o" x1="194.293" y1="158.149" x2="209.68" y2="243.234" gradientUnits="userSpaceOnUse"><stop stop-color="#FFA100"/><stop offset="1" stop-color="#FFCC03"/></linearGradient><linearGradient id="p" x1="158.272" y1="187.33" x2="182.587" y2="187.33" gradientUnits="userSpaceOnUse"><stop stop-color="#E37F0A"/><stop offset=".429" stop-color="#FFA101"/><stop offset="1" stop-color="#FFB802"/></linearGradient><linearGradient id="q" x1="167.382" y1="134.708" x2="119.264" y2="193.729" gradientUnits="userSpaceOnUse"><stop stop-color="#FB944B"/><stop offset="1" stop-color="#E57139"/></linearGradient><linearGradient id="r" x1="167.095" y1="84.494" x2="184.118" y2="137.48" gradientUnits="userSpaceOnUse"><stop stop-color="#764B68"/><stop offset="1" stop-color="#22043D"/></linearGradient></defs></svg>