<svg width="260" height="280" viewBox="0 0 260 280" fill="none" xmlns="http://www.w3.org/2000/svg"><path d="M170.656 171.504L81.8573 120.254L170.656 69.0042L259.456 120.254L170.656 171.504Z" fill="#EBF7FF"/><path d="M170.656 274.004L81.8567 222.754V120.254L170.656 171.504V274.004Z" fill="#DDEAF2"/><path d="M259.456 222.754L170.656 274.004V171.504L259.456 120.254V222.754Z" fill="#C8DCEA"/><path d="M121.109 142.936V162.268L131.401 168.202V148.869L121.109 142.936zM121.109 226.055V245.435L131.401 251.321V231.989L121.109 226.055z" fill="#4AA4E1"/><path d="M131.402 148.87L220.201 97.6197L209.909 91.686L121.11 142.936L131.402 148.87Z" fill="#80C8F9"/><path d="M162.951 77.7612L101.246 42.1591L162.951 6.50903L224.655 42.1591L162.951 77.7612Z" fill="#EBF7FF"/><path d="M137.244 62.927L198.948 27.277L188.656 21.3911L126.952 56.9933L137.244 62.927Z" fill="#80C8F9"/><path d="M162.952 149.013L101.248 113.363V42.1587L162.952 77.7608V149.013Z" fill="#DDEAF2"/><path d="M224.655 113.363L162.951 149.013V77.7608L224.655 42.1587V113.363Z" fill="#C8DCEA"/><path d="M126.953 56.9934V72.4497L137.245 78.3834V62.9271L126.953 56.9934zM126.953 112.789V128.245L137.245 134.179V118.722L126.953 112.789z" fill="#4AA4E1"/><path d="M239.714 117.479L194.285 143.99L163.409 149.014L225.114 113.364V109.057L239.714 117.479Z" fill="url(#a)"/><path d="M206.582 43.4058L183.407 57.357L161.008 60.4776L192.187 41.9984V41.0194L190.694 40.1015V34.105C190.933 34.105 189.619 33.3707 206.582 43.4058Z" fill="url(#b)"/><path d="M177.406 29.5742L197.32 41.0588L164.098 60.2476L139.11 45.7962L177.406 29.5742Z" fill="#FFD263"/><path d="M140.306 40.4368L164.241 54.2183V59.3863L140.306 45.6048V40.4368Z" fill="#EFEFEF"/><path d="M140.306 43.3557V42.6858L164.241 56.4673V57.185L140.306 43.3557zM140.306 45.0303V44.3604L164.241 58.1418V58.8596L140.306 45.0303zM140.306 41.6809V40.9631L164.241 54.7925V55.4624L140.306 41.6809z" fill="#E2E2E2"/><path d="M139.11 39.0015L172.332 19.8127L197.32 34.2642L164.098 53.4051L139.11 39.0015Z" fill="url(#c)"/><path d="M139.111 39.0017L164.099 53.4531C165.391 56.6592 165.343 59.1954 164.099 61.0138L139.111 46.5624V45.7968L163.476 59.8653C164.338 58.2862 164.338 56.2764 163.476 53.7881L139.111 39.7195V39.0017Z" fill="#F9AC28"/><path d="M164.099 53.4049L197.321 34.2639C198.613 37.47 198.566 40.0062 197.321 41.8246L164.099 60.9656C165.344 59.1472 165.392 56.611 164.099 53.4049Z" fill="#FFC840"/><path d="M167.402 18.9517L192.391 33.3552L159.217 52.544L134.181 38.0926L167.402 18.9517Z" fill="url(#d)"/><path d="M135.424 32.7332L159.312 46.5146V51.6827L135.424 37.9012V32.7332Z" fill="#EFEFEF"/><path d="M135.424 35.6521V34.9822L159.312 48.7637V49.4336L135.424 35.6521zM135.424 37.3267V36.6567L159.312 50.4382V51.156L135.424 37.3267zM135.424 33.9773V33.2595L159.312 47.0889V47.7588L135.424 33.9773z" fill="#E2E2E2"/><path d="M134.181 31.2501L167.402 12.1091L192.391 26.5127L159.217 45.7015L134.181 31.2501Z" fill="url(#e)"/><path d="M134.18 31.2495L159.169 45.7009C160.461 48.907 160.413 51.4432 159.169 53.2616L134.18 38.8102V38.0445L158.546 52.1132C159.408 50.534 159.408 48.5242 158.546 46.0359L134.18 31.9673V31.2495Z" fill="url(#f)"/><path d="M159.216 45.7013L192.438 26.5603C193.731 29.7664 193.683 32.3026 192.438 34.121L159.216 53.2619C160.461 51.3957 160.509 48.9074 159.216 45.7013Z" fill="url(#g)"/><path opacity=".8" transform="matrix(.866 .50004 .00004 1 15.388 7.056)" fill="#EBF7FF" d="M0 0H127.358V35.542H0z"/><path fill-rule="evenodd" clip-rule="evenodd" d="M32.4888 23.8404C34.8497 25.2036 36.7637 28.5187 36.7638 31.245L36.764 33.2196L37.6189 33.7133C38.5633 34.2585 39.3289 35.5846 39.329 36.6751L39.3293 45.5606C39.3294 46.6511 38.5638 47.0931 37.6194 46.5478L27.3596 40.6238C26.4152 40.0786 25.6496 38.7525 25.6496 37.662L25.6493 28.7765C25.6492 27.686 26.4148 27.244 27.3592 27.7893L28.2141 28.283L28.2141 26.3084C28.214 23.5823 30.1278 22.4772 32.4888 23.8404ZM32.4888 25.8149C33.9054 26.6328 35.0537 28.6219 35.0538 30.2577L35.0539 30.2629L35.054 32.2323L29.9241 29.2703L29.924 27.2958C29.924 25.6601 31.0723 24.997 32.4888 25.8149ZM30.7793 34.7003C30.7792 34.1551 31.162 33.9341 31.6342 34.2067L32.4892 34.7004L33.3442 35.194C33.8164 35.4667 34.1992 36.1297 34.1992 36.675C34.1992 37.2202 33.8164 37.4412 33.3443 37.1686L33.3443 39.1431C33.3443 39.6884 32.9616 39.9094 32.4894 39.6367C32.0172 39.3641 31.6344 38.701 31.6344 38.1558L31.6343 36.1813C31.1621 35.9086 30.7793 35.2456 30.7793 34.7003Z" fill="#1D9EF9"/><path d="M46.1056 42.6245L46.1058 46.5119 45.2459 46.0154 45.2456 37.3992 46.1055 37.8957 46.1056 41.0595 46.1784 41.1016C46.3096 40.8435 46.5063 40.6921 46.7686 40.6472 47.0334 40.6009 47.3856 40.7047 47.8252 40.9586 48.2066 41.1788 48.5405 41.46 48.8272 41.8022 49.1138 42.1415 49.336 42.5377 49.4939 42.9907 49.6543 43.4423 49.7344 43.9457 49.7344 44.5011L49.7346 48.6072 48.8748 48.1107 48.8746 44.0719C48.8746 43.5586 48.7592 43.0951 48.5284 42.6814 48.3001 42.2663 47.9831 41.9417 47.5775 41.7074 47.2957 41.5448 47.0431 41.4676 46.8197 41.476 46.5987 41.4858 46.4238 41.5854 46.2951 41.7747 46.1688 41.9654 46.1056 42.2487 46.1056 42.6245zM53.6386 44.3994L53.6386 45.2408 50.7385 43.5663 50.7384 42.7248 53.6386 44.3994zM51.5837 41.6647L52.4435 42.1612 52.4437 48.3204C52.4437 48.6009 52.479 48.8316 52.5494 49.0125 52.6223 49.192 52.7146 49.3378 52.8263 49.45 52.9405 49.5608 53.0607 49.6527 53.187 49.7256 53.2817 49.7803 53.3595 49.8196 53.4202 49.8434 53.4809 49.8645 53.5295 49.8813 53.5659 49.8939L53.7408 50.8868C53.6825 50.8784 53.6012 50.8566 53.4967 50.8216 53.3923 50.7893 53.2599 50.7269 53.0996 50.6343 52.8567 50.4941 52.6187 50.2963 52.3855 50.0411 52.1547 49.7873 51.9628 49.4928 51.8098 49.1576 51.6592 48.8238 51.5839 48.469 51.5839 48.0932L51.5837 41.6647zM57.2632 46.4923L57.2632 47.3337 54.3631 45.6591 54.363 44.8177 57.2632 46.4923zM55.2082 43.7576L56.0681 44.254 56.0683 50.4133C56.0683 50.6937 56.1036 50.9244 56.174 51.1053 56.2469 51.2849 56.3392 51.4307 56.4509 51.5429 56.5651 51.6537 56.6853 51.7456 56.8116 51.8185 56.9063 51.8732 56.9841 51.9124 57.0448 51.9363 57.1055 51.9573 57.1541 51.9742 57.1905 51.9868L57.3654 52.9797C57.3071 52.9713 57.2258 52.9495 57.1213 52.9145 57.0169 52.8822 56.8845 52.8198 56.7242 52.7272 56.4813 52.587 56.2433 52.3892 56.0101 52.134 55.7793 51.8801 55.5874 51.5856 55.4344 51.2505 55.2838 50.9167 55.2085 50.5619 55.2085 50.186L55.2082 43.7576zM58.4543 56.0653L58.454 47.1799 59.2847 47.6595 59.2847 48.6861 59.3867 48.745C59.4499 48.6692 59.5373 48.5767 59.649 48.4673 59.7632 48.3565 59.9259 48.2934 60.1372 48.278 60.351 48.2612 60.64 48.358 61.0044 48.5683 61.4756 48.8404 61.8909 49.2163 62.2504 49.6959 62.6099 50.1755 62.8905 50.7232 63.0921 51.3388 63.2937 51.9545 63.3945 52.6017 63.3945 53.2804 63.3946 53.9648 63.2938 54.4998 63.0922 54.8854 62.8906 55.2683 62.6113 55.494 62.2543 55.5627 61.8972 55.6286 61.4855 55.5269 61.0192 55.2577 60.6597 55.0501 60.3719 54.8152 60.1557 54.5529 59.9395 54.2879 59.7731 54.0333 59.6565 53.7893 59.5399 53.5425 59.4501 53.3419 59.3869 53.1877L59.314 53.1456 59.3142 56.5618 58.4543 56.0653zM59.2994 50.899C59.2994 51.387 59.3613 51.8533 59.4852 52.2979 59.6091 52.7396 59.7901 53.1344 60.0281 53.4822 60.2662 53.8272 60.5576 54.0993 60.9026 54.2984 61.262 54.506 61.562 54.5698 61.8025 54.4899 62.0453 54.4086 62.2275 54.2165 62.3489 53.9135 62.4728 53.6092 62.5347 53.2271 62.5347 52.7671 62.5347 52.3128 62.4739 51.8682 62.3525 51.4335 62.2335 50.9973 62.0525 50.6025 61.8096 50.2491 61.5691 49.8943 61.2667 49.6117 60.9024 49.4013 60.5526 49.1994 60.2587 49.1321 60.0207 49.1994 59.7827 49.2639 59.6029 49.4434 59.4815 49.7379 59.3601 50.0295 59.2993 50.4166 59.2994 50.899zM68.5675 54.4667L67.7951 54.2732C67.7465 54.0965 67.6749 53.9107 67.5801 53.7157 67.4878 53.5194 67.3615 53.3287 67.2012 53.1435 67.0409 52.9584 66.8357 52.7936 66.5855 52.6492 66.243 52.4514 65.9576 52.3778 65.7293 52.4283 65.5034 52.4773 65.3905 52.6407 65.3905 52.9184 65.3905 53.1652 65.4682 53.405 65.6237 53.6378 65.7791 53.8706 66.022 54.1301 66.3524 54.4162L67.1831 55.1314C67.6834 55.5605 68.0563 55.9904 68.3016 56.4209 68.547 56.8487 68.6696 57.2883 68.6696 57.7399 68.6697 58.1101 68.5774 58.3878 68.3928 58.5729 68.2106 58.7594 67.9556 58.8421 67.6277 58.8211 67.2998 58.8 66.9185 58.664 66.4837 58.4129 65.9129 58.0833 65.4404 57.6675 65.0664 57.1654 64.6923 56.6634 64.4555 56.1087 64.3559 55.5015L65.172 55.7371C65.2497 56.1298 65.3967 56.4755 65.6129 56.7742 65.8315 57.0743 66.1169 57.3261 66.4691 57.5294 66.8698 57.7608 67.188 57.8464 67.4236 57.7861 67.6617 57.7244 67.7807 57.5547 67.7807 57.2771 67.7806 57.0527 67.7126 56.8255 67.5766 56.5955 67.4406 56.3627 67.2317 56.1271 66.9499 55.8887L66.0172 55.0977C65.5047 54.6615 65.1282 54.2268 64.8877 53.7934 64.6497 53.3587 64.5307 52.9183 64.5306 52.4724 64.5306 52.1078 64.6193 51.8364 64.7966 51.6583 64.9763 51.4816 65.2204 51.4024 65.5289 51.4206 65.8398 51.4403 66.192 51.5637 66.5854 51.7909 67.1392 52.1107 67.574 52.502 67.8898 52.9648 68.208 53.429 68.4339 53.9296 68.5675 54.4667zM70.4881 60.6578C70.3084 60.554 70.1541 60.3906 70.0254 60.1676 69.8966 59.9447 69.8323 59.7294 69.8323 59.5218 69.8322 59.3143 69.8966 59.1734 70.0253 59.099 70.1541 59.0247 70.3083 59.0394 70.488 59.1432 70.6678 59.247 70.822 59.4104 70.9508 59.6334 71.0795 59.8564 71.1439 60.0716 71.1439 60.2792 71.1439 60.4166 71.1135 60.5253 71.0528 60.6052 70.9945 60.6866 70.9156 60.7335 70.816 60.7462 70.7188 60.7574 70.6095 60.7279 70.4881 60.6578zM70.4879 55.8617C70.3082 55.7579 70.1539 55.5945 70.0252 55.3715 69.8965 55.1485 69.8321 54.9333 69.8321 54.7257 69.8321 54.5182 69.8964 54.3772 70.0252 54.3029 70.1539 54.2286 70.3081 54.2433 70.4879 54.3471 70.6676 54.4509 70.8218 54.6143 70.9506 54.8373 71.0793 55.0602 71.1437 55.2755 71.1437 55.4831 71.1437 55.6205 71.1133 55.7292 71.0526 55.8091 70.9943 55.8904 70.9154 55.9374 70.8158 55.95 70.7187 55.9613 70.6094 55.9318 70.4879 55.8617zM75.2218 54.3039L72.8175 63.2313 72.0305 62.7769 74.4348 53.8495 75.2218 54.3039zM78.7762 56.3563L76.372 65.2836 75.585 64.8292 77.9892 55.9018 78.7762 56.3563z" fill="#336E98"/><path fill-rule="evenodd" clip-rule="evenodd" d="M113.002 77.6992L115.722 82.4115C115.889 82.7007 115.889 83.0132 115.722 83.1096L113.002 84.6802C112.835 84.7766 112.564 84.6203 112.397 84.3312C112.23 84.042 112.23 83.7294 112.397 83.6331L114.388 82.4837L84.6408 65.3075L84.6407 64.3202L114.388 81.4965L112.397 78.0482C112.23 77.759 112.23 77.4465 112.397 77.3501C112.564 77.2537 112.835 77.41 113.002 77.6992Z" fill="#336E93"/><path d="M113.963 259.878L86.2748 275.88L63.081 279.056L47.5586 259.878L80.761 240.7L113.963 259.878Z" fill="url(#h)"/><path d="M87.0539 265.212L63.0811 279.056V243.936L100.599 222.3L87.0539 265.212Z" fill="#C8DCEA"/><path d="M39.0481 265.212L63.0809 279.056V243.936L25.5034 222.3L39.0481 265.212Z" fill="#DDEAF2"/><path d="M63.0809 200.604L25.5034 222.3 63.0809 243.935V200.604zM63.0811 200.604L100.599 222.3 63.0811 243.935V200.604z" fill="#7AAFD5"/><path d="M63.0215 200.605L25.5039 222.3C41.7455 231.65 33.2352 226.795 63.0215 243.996C92.8677 226.735 84.597 231.53 100.539 222.3L63.0215 200.605ZM63.0215 241.958C35.5126 226.076 42.7644 230.271 28.98 222.3L63.0215 202.642L97.1229 222.3C83.0987 230.391 90.6502 226.016 63.0215 241.958Z" fill="#FBFDFF"/><path d="M86.1555 228.593L63.0216 241.958L39.9478 228.593L63.0216 215.228L86.1555 228.593Z" fill="#336E98"/><path d="M63.9197 237.163C71.1354 237.163 76.9849 233.783 76.9849 229.612C76.9849 225.441 71.1354 222.061 63.9197 222.061C56.704 222.061 50.8545 225.441 50.8545 229.612C50.8545 233.783 56.704 237.163 63.9197 237.163Z" fill="#1A4360"/><path d="M84.4756 142.59C82.0184 144.088 80.4601 145.886 75.8453 149.302C76.0851 149.243 80.2803 147.564 84.116 144.088C82.0184 153.078 80.8797 161.948 82.0783 171.058C80.4601 172.316 78.4224 173.575 75.8453 174.654C67.3949 178.37 66.436 182.265 66.436 182.505C66.5559 182.265 68.3538 178.609 77.2837 176.212C79.3214 175.673 81.0594 175.013 82.5577 174.294C82.7975 175.373 83.0372 176.512 83.3369 177.65C82.9173 192.214 82.7975 192.873 81.7786 195.81C78.7221 199.166 74.5868 202.582 70.0319 205.759C70.3316 205.579 75.306 202.882 80.4601 199.106C79.0218 202.282 77.4036 205.579 77.044 209.354C76.3847 214.329 79.681 220.022 76.4447 224.757C73.2683 230.151 62.7801 236.144 56.6071 228.173C47.857 216.606 48.0967 202.702 47.3776 189.037C52.7715 193.053 58.8246 194.731 58.8246 194.731C53.8502 192.154 50.0745 189.457 47.2577 187.12C46.8981 181.366 46.2388 175.673 44.4409 169.979C43.6618 166.863 44.8604 160.63 45.6395 157.633C50.6139 162.188 56.3075 164.705 56.6071 164.885C52.4718 162.248 48.756 159.011 46.1789 155.535C48.5163 147.804 51.8125 140.373 51.4529 131.682C51.8725 131.922 52.3519 132.162 52.7715 132.402C60.263 135.938 61.5216 139.593 61.5815 139.833C61.5815 139.593 61.2219 135.758 54.3896 130.843C53.0711 129.884 51.9923 128.926 51.0934 127.847C50.9735 127.008 50.7937 126.109 50.6139 125.27C50.3742 124.311 50.1944 121.194 50.6139 120.056C51.3331 116.28 51.9324 113.703 52.4119 111.845C56.3075 117.838 61.8212 121.854 62.1808 122.093C58.2253 118.318 54.9889 113.763 53.2509 109.268C54.5095 106.211 56.1277 105.013 61.0421 98.8995C64.2185 94.4645 65.3572 86.1339 68.234 81.7589C69.1329 80.2007 72.9087 74.3273 74.2871 73.728C75.6655 72.8889 77.1039 72.4095 78.5423 72.2297C79.681 71.8701 80.6999 71.8701 81.5988 72.2896C87.0527 76.0054 86.0338 90.7487 86.0938 93.3258C85.854 95.4834 85.3146 97.5211 84.8352 99.5587C81.7187 101.537 77.7632 103.215 73.508 104.413C73.8077 104.353 79.1416 103.634 84.4156 101.596C84.116 103.155 83.9362 104.773 83.9961 106.391C85.7941 116.46 86.753 115.681 85.1948 133.42C81.9584 136.777 76.7443 139.833 70.9309 142.35C70.9309 142.35 78.7221 140.193 85.015 136.357C84.4756 143.249 84.6554 141.811 84.4756 142.59Z" fill="url(#i)"/><path d="M73.868 96.4421C76.4451 98.5997 80.3407 95.4832 82.1986 94.4044 83.8168 93.4455 85.7346 92.6664 86.0343 92.6064 82.3784 93.9849 80.101 96.2024 77.9434 97.0414 76.565 97.5808 74.9468 97.5808 73.928 96.8017 73.868 96.7418 73.8081 96.7418 73.8081 96.7418 73.8081 96.6219 73.868 96.562 73.868 96.4421zM69.2515 115.321C69.4313 115.321 72.4279 115.081 74.5255 114.721 75.005 114.661 75.4844 114.482 76.0238 114.422 79.7396 113.343 81.2379 112.564 84.5342 109.507 84.5342 109.507 82.916 111.125 81.5975 112.084 77.0427 115.441 69.3713 115.74 69.3713 115.74 69.2515 115.56 69.2515 115.441 69.2515 115.321zM67.3344 125.209C66.6751 125.329 77.5229 124.55 83.3962 121.314 84.4151 120.774 85.4339 120.115 85.9733 119.696 80.7592 123.771 73.8071 124.79 67.3943 125.569 67.3344 125.449 67.3344 125.329 67.3344 125.209zM65.9565 136.237C72.609 134.919 80.2204 133.061 85.4944 128.746 80.9995 132.521 74.8864 134.439 69.2528 135.818 67.2751 136.297 65.9565 136.537 65.9565 136.537 66.0165 136.477 65.9565 136.357 65.9565 136.237zM63.2007 162.007L65.2384 161.408C68.2949 160.389 66.9165 160.808 68.2949 160.329 75.6066 157.692 81.5999 151.399 82.7985 150.8 82.7985 150.8 81.7197 151.639 80.1615 153.017 73.6289 158.531 70.1528 160.209 63.3206 162.366 63.2606 162.247 63.2007 162.127 63.2007 162.007zM62.48 172.257C62.48 172.257 66.3156 171.957 72.6085 167.342 74.8859 165.664 77.0435 163.926 78.7815 162.788 80.3997 161.649 83.0367 160.21 80.8792 161.469 75.0058 165.005 69.552 171.418 62.5399 172.616 62.48 172.437 62.48 172.377 62.48 172.257zM62.8994 192.994L66.6152 191.435C76.7438 187 79.5606 184.124 82.677 179.808 82.8568 179.569 82.9767 179.329 83.1565 179.209 83.2764 179.089 83.3363 179.029 83.3363 179.029 81.9578 180.408 79.9801 185.262 70.4509 189.877 67.3344 191.495 63.0193 193.293 63.0193 193.293 62.9593 193.173 62.9593 193.113 62.8994 192.994zM64.0977 201.684C64.0977 201.684 65.2963 201.085 67.1542 200.246 72.1885 197.849 77.5824 195.152 82.0773 191.915 85.1338 189.698 78.7211 195.212 64.2175 202.044 64.2175 201.924 64.1576 201.804 64.0977 201.684zM65.8345 217.084C68.4715 216.844 73.1462 214.687 76.9819 210.012 76.9819 210.012 76.5024 210.671 75.6034 211.63 70.8688 216.904 65.8944 217.504 65.8944 217.504 65.8944 217.324 65.8944 217.204 65.8345 217.084zM67.4561 227.274C71.5314 224.937 74.1085 223.498 77.1051 220.202 77.7045 219.543 78.2439 218.764 77.5247 219.723 74.9476 223.199 70.9921 225.476 67.5759 227.574 67.5759 227.514 67.516 227.394 67.4561 227.274zM72.6077 100.518C68.1128 98.7801 65.8953 94.5849 64.8765 89.9102 64.8765 89.9102 66.3748 97.7613 72.2481 99.9788 72.5478 100.099 72.7276 100.159 72.7276 100.159 72.6676 100.338 72.6077 100.398 72.6077 100.518zM70.1518 110.946C70.1518 110.946 63.8589 109.687 59.4239 101.776 58.9445 100.877 59.0044 101.057 59.4239 101.776 63.799 109.388 70.2117 110.586 70.2117 110.586 70.2117 110.706 70.2117 110.826 70.1518 110.946zM64.2176 148.583C64.2176 148.583 58.4042 149.422 53.9093 146.066 51.9315 144.748 50.2534 142.53 50.2534 142.53 53.7894 146.785 58.0446 148.763 63.4984 148.344 63.918 148.284 64.1577 148.284 64.1577 148.284 64.2176 148.344 64.2176 148.464 64.2176 148.583zM62.9001 159.49C62.96 159.49 60.5627 159.91 58.7048 159.61 52.6517 159.071 47.3177 152.119 47.3177 152.119 47.2578 152.119 49.2356 154.156 49.2955 154.216 52.7116 157.692 57.2665 160.15 62.061 159.251 62.5405 159.191 62.8402 159.131 62.8402 159.131 62.8402 159.311 62.8402 159.43 62.9001 159.49zM62.6605 179.09C62.6605 179.09 62.3009 179.03 61.7016 178.85 50.1347 175.853 47.5576 172.497 44.7408 166.984 43.1826 163.987 45.6398 169.021 47.1381 170.879 50.6741 175.494 57.1468 177.412 62.7804 178.73 62.7205 178.85 62.7205 178.97 62.6605 179.09zM62.8992 188.977C62.18 188.857 58.9437 187.958 56.906 186.939 50.5532 184.003 47.4966 179.268 46.3579 178.249 46.4178 178.249 48.4555 180.526 48.5155 180.586 52.9504 185.261 57.2656 187.359 63.0191 188.677 62.9591 188.737 62.8992 188.857 62.8992 188.977zM63.8593 205.999C64.159 205.999 59.8439 205.879 56.6075 204.68 54.2103 203.841 51.8729 202.403 49.8951 200.844 49.7753 200.784 47.6777 199.046 47.7376 199.046 52.8918 203.242 56.7873 205.459 63.9193 205.579 63.9193 205.759 63.9193 205.879 63.8593 205.999zM65.2371 214.748C64.5778 214.748 61.5812 215.527 56.6668 214.268 52.5914 213.249 48.9355 211.152 48.9355 211.152 48.2763 210.792 57.0263 215.826 64.4579 214.508 64.9374 214.448 65.1771 214.388 65.1771 214.388 65.2371 214.508 65.2371 214.628 65.2371 214.748zM66.5549 225.416C63.0788 226.794 59.9024 227.094 53.9092 224.637 60.0822 227.034 63.0189 226.435 66.435 225.056 66.4949 225.176 66.5549 225.296 66.5549 225.416zM65.7761 132.401C66.6751 132.401 60.2623 132.282 55.4078 127.667 52.4712 125.15 50.3735 121.074 50.3735 121.074 51.692 123.531 52.9506 124.97 54.1493 126.288 56.3668 128.506 57.5055 129.225 59.9627 130.424 62.8394 131.562 63.5586 131.682 65.7761 131.982 65.7761 132.162 65.7761 132.282 65.7761 132.401z" fill="#1677BB"/><path d="M68.5939 231.17C67.8148 231.469 66.9757 231.709 66.1367 231.889C64.2188 223.199 63.5596 210.733 62.7205 200.065C60.3232 168.6 63.7394 135.098 71.4107 105.192C75.0666 90.329 80.88 73.9076 81.4793 72.4692C80.9399 73.9076 75.1864 90.389 71.7703 105.312C64.4586 135.638 61.7017 168.96 64.6384 199.765C65.5973 210.373 66.4963 222.659 68.5939 231.17Z" fill="#1677BB"/><path d="M116.18 155.535C115.641 157.573 114.802 159.67 114.023 161.768C111.086 164.884 107.91 166.982 104.973 167.641C105.213 167.581 108.689 167.641 113.304 163.806C109.408 174.593 114.562 171.956 105.153 188.737C101.917 190.535 98.2008 190.296 94.9645 188.438C95.6237 188.857 99.2197 191.554 104.014 190.475C103.595 191.075 102.216 193.172 101.677 193.652C99.7591 193.652 98.2608 194.071 95.1443 193.112C95.2641 193.172 97.6015 194.731 100.958 194.311C96.7625 197.967 93.4662 199.825 91.3086 203.66C90.2298 203.241 89.0312 202.582 87.7127 201.683C83.3976 198.626 81.9592 200.304 81.8993 200.364C82.0191 200.364 83.6972 199.225 87.8925 203.061C88.8514 203.9 89.7504 204.619 90.5894 205.159C90.3497 205.698 90.1699 206.237 89.9901 206.837C86.8736 210.792 86.5141 212.77 84.5363 214.748C82.3787 215.048 79.8016 215.107 76.9848 215.347C77.1646 215.347 79.9814 215.647 83.1578 216.066C81.7195 217.325 80.2212 218.703 79.0225 221.28C78.1835 222.899 77.764 225.476 77.2246 227.813C76.2057 231.769 72.43 234.286 68.5943 233.686C65.1782 233.147 64.7587 229.971 64.3991 226.435C63.5001 218.703 67.5156 208.155 71.2913 199.225C73.1492 201.803 75.3067 204.32 75.3067 204.38C73.8684 201.563 72.6697 199.585 71.7707 198.027C76.7451 186.1 73.6286 189.097 77.1047 184.722C77.704 183.943 78.3633 183.283 79.0825 182.684C85.6151 193.832 81.8993 188.318 79.9215 181.965C83.1579 179.448 86.6339 178.609 88.0124 175.013C88.1922 175.312 88.4319 175.612 88.6117 175.912C91.9679 180.826 91.3686 182.864 91.3686 182.924C91.3686 182.864 92.3275 181.246 89.7504 176.032C89.211 175.013 88.7915 174.114 88.4319 173.275C88.4918 172.855 88.5517 172.436 88.5517 171.956C88.5517 171.417 88.8514 169.979 89.211 169.619C90.11 168.181 90.6494 167.042 91.1288 166.263C93.1665 170.997 95.2042 175.193 95.4439 175.672C94.0655 172.136 92.747 168.36 91.848 165.124C92.8669 163.746 93.9456 163.985 97.4816 160.929C99.8789 158.412 99.9389 153.138 102.036 149.002C102.756 147.624 104.674 146.425 105.812 145.826C106.831 144.927 114.083 137.915 115.461 137.975C116.48 137.615 117.379 137.675 118.218 138.035C123.193 139.653 116.72 152.239 116.18 155.535Z" fill="url(#j)"/><path d="M106.413 160.99C106.413 160.99 106.533 161.109 106.712 161.229 108.63 162.548 111.387 159.311 114.564 156.375 117.86 153.378 115.822 155.176 112.886 157.993 111.207 159.611 108.51 162.728 106.593 161.469 106.353 161.289 106.293 161.169 106.293 161.169 106.293 161.109 106.353 161.05 106.413 160.99zM100.537 174.534C100.477 174.534 103.114 175.732 105.751 174.953 108.748 174.174 111.804 170.518 111.744 170.518 108.328 174.354 105.212 176.511 100.537 174.713 100.477 174.713 100.477 174.653 100.537 174.534zM97.4222 179.448C97.4222 179.448 100.179 181.425 103.056 181.545 104.734 181.605 106.292 181.126 107.731 180.347 109.109 179.568 110.068 178.729 110.068 178.729 110.068 178.729 107.97 180.646 105.453 181.306 103.236 181.905 101.138 181.545 99.0404 180.526 98.0216 179.987 97.3623 179.568 97.3623 179.568 97.4222 179.568 97.4222 179.508 97.4222 179.448zM95.9239 184.902C98.6209 186.7 101.438 187.659 104.614 186.64 105.873 186.22 106.951 185.621 106.951 185.621 103.296 187.719 99.9993 187.778 95.864 185.081 94.8452 184.422 94.1859 183.883 94.126 183.883 94.2458 183.523 94.0061 183.643 95.9239 184.902zM86.2746 190.955C89.2712 193.352 91.9082 195.569 95.9236 196.408 97.1223 196.648 97.9613 196.768 97.9613 196.768 97.9613 196.768 94.725 196.588 91.7883 194.97 89.6907 193.891 86.1547 191.074 86.2146 191.074 86.2746 191.074 86.2746 191.015 86.2746 190.955zM83.1576 194.312C83.1576 194.312 83.3374 194.432 83.5771 194.671 86.6337 196.949 90.5892 198.207 94.1851 200.005 90.5892 198.267 86.5737 197.009 83.5172 194.791 83.2175 194.611 83.0977 194.492 83.0977 194.492 83.0977 194.432 83.1576 194.372 83.1576 194.312zM77.5262 204.438C77.5262 204.438 79.444 204.738 82.5605 205.996 85.3174 206.955 86.0366 207.375 89.0931 207.255 89.5726 207.255 89.3329 207.255 89.5726 207.315 88.0743 206.955 87.8945 208.094 81.4218 205.697 77.1666 204.258 77.4064 204.978 77.5262 204.438zM75.5471 210.253C78.5437 210.193 85.7955 212.95 86.0352 212.77 86.0352 212.95 79.9821 211.032 77.2252 210.672 75.3073 210.373 75.4871 210.732 75.5471 210.253zM71.892 221.701C71.892 221.701 72.0118 221.761 72.1916 221.821 73.7499 222.66 75.7276 222.839 77.7653 222.12 78.4246 221.88 78.7842 221.701 78.7842 221.701 76.6266 222.839 74.2293 223.139 72.1317 222.12 71.9519 222.06 71.832 222 71.832 222 71.832 221.88 71.832 221.761 71.892 221.701zM69.5521 229.492C69.5521 229.492 72.1891 229.971 73.148 230.031 75.3056 230.151 76.6241 229.372 76.6241 229.372 74.107 230.69 72.2491 230.151 69.4922 229.791 69.5521 229.671 69.5521 229.612 69.5521 229.492zM104.972 164.405C102.155 162.607 100.717 157.153 100.237 153.976L100.717 156.074C102.455 163.326 105.272 164.105 105.092 164.105 105.032 164.225 105.032 164.285 104.972 164.405zM101.857 171.896C101.857 171.896 99.0397 170.218 96.2828 162.606 95.8633 161.288 96.2229 162.546 96.8222 163.985 97.9609 166.802 99.6391 169.978 101.976 171.716 101.916 171.776 101.857 171.836 101.857 171.896zM90.3493 187.178C90.2894 187.178 89.3305 185.98 89.2706 185.98 87.2928 183.583 86.4538 181.665 85.6746 179.927 85.315 178.968 85.0154 177.949 85.315 178.908 86.1541 181.485 87.8322 184.302 90.4093 187.059 90.4093 187.119 90.3493 187.119 90.3493 187.178zM86.8143 189.995L86.0952 189.276C84.3571 187.418 83.0986 185.62 81.8999 182.384 81.0609 180.166 82.9188 184.601 83.4581 185.62 84.8366 187.957 85.7356 188.736 86.9342 189.875 86.8743 189.935 86.8743 189.935 86.8143 189.995zM81.3602 197.248C81.4201 197.248 78.9629 193.832 78.9629 193.832 77.8242 192.094 76.5656 190.715 76.1461 188.018L75.9663 186.101C76.1461 188.198 76.1461 189.037 77.105 190.835 78.4235 193.113 79.5622 194.371 81.1205 196.649 81.3602 196.948 81.4801 197.128 81.4801 197.128 81.4201 197.188 81.3602 197.248 81.3602 197.248zM78.6037 202.222L77.5848 200.784C74.6481 196.649 74.2286 193.472 73.8091 192.693 73.869 192.693 74.2885 194.131 74.3485 194.191 75.8468 198.626 78.7835 202.102 78.7835 202.102 78.7235 202.102 78.6636 202.162 78.6037 202.222zM74.2276 213.13C74.2276 213.13 73.7482 212.71 73.0889 212.111 71.3509 210.553 70.4519 209.474 69.1334 207.137 68.7139 206.357 68.1745 205.398 68.6539 206.238 70.332 209.354 71.6505 210.613 73.2088 211.931 73.928 212.53 74.4074 212.95 74.4074 212.95 74.2876 212.95 74.2276 213.01 74.2276 213.13zM72.2513 219.781C72.2513 219.781 71.4722 219.362 70.9928 219.062 69.1948 217.923 65.479 214.567 65.479 214.567 69.6743 217.983 69.914 218.223 72.3712 219.542 72.3113 219.601 72.3113 219.661 72.2513 219.781zM69.7332 227.813C69.6733 227.813 68.7144 227.453 68.6544 227.393 66.3171 226.374 64.5191 223.977 64.0996 223.797 64.0996 223.797 64.3993 224.037 64.8188 224.397 65.7777 225.236 67.2161 226.794 69.4935 227.393 69.6733 227.453 69.7932 227.513 69.7932 227.513 69.7332 227.633 69.7332 227.753 69.7332 227.813zM95.0245 182.025C95.0245 182.025 91.968 178.729 89.8704 172.975 89.8704 172.915 88.7916 169.979 88.8515 170.039 88.8515 170.219 91.129 177.53 95.0845 181.905 95.1444 181.965 95.0845 181.965 95.0245 182.025z" fill="#1677BB"/><path d="M117.979 138.214C116.78 139.353 107.91 157.512 103.715 168.06C98.8606 180.946 91.8485 185.68 85.256 192.573C81.9597 196.288 78.9032 201.862 76.2662 209.174C73.749 216.066 71.112 223.857 69.374 230.15C68.8346 230.09 67.4561 233.326 67.0366 233.147C74.0487 211.092 78.5436 198.746 84.7166 191.973C91.5489 185.141 98.5609 180.766 103.535 167.94C107.79 157.452 116.84 139.233 117.979 138.214Z" fill="#1677BB"/><path d="M43.7825 169.738C42.464 171.956 41.9246 173.934 39.2277 178.309C39.4075 178.129 42.2842 175.132 44.0223 170.937C45.2209 177.829 46.2997 184.062 49.596 189.636C48.6371 191.134 47.4384 192.752 45.7603 194.431C40.2465 200.064 40.8459 202.821 40.9058 202.941C40.9058 202.761 41.0856 199.824 47.3185 194.85C48.697 193.711 49.8956 192.633 50.8545 191.554C51.334 192.213 51.8135 192.872 52.2929 193.472C55.5892 202.521 56.3084 202.521 56.9077 206.177C55.9488 209.354 54.5104 212.77 52.9522 216.126C53.072 215.946 55.1097 212.77 57.2073 208.754C57.507 211.271 57.8666 213.909 59.5447 216.426C61.7023 219.782 67.3359 222.659 68.7143 226.434C70.5123 230.51 69.4934 236.503 59.0652 233.386C44.262 229.011 35.5718 221.34 29.279 213.909C34.9126 214.148 39.9469 213.01 39.9469 213.01C35.2722 213.189 31.3766 213.129 28.38 212.89C18.7309 201.862 19.6299 206.477 17.5922 200.723C17.2326 199.705 16.9929 198.626 16.873 197.487C22.3268 197.547 27.6009 196.468 27.9005 196.408C23.8251 196.768 19.8696 196.708 16.7531 196.109C16.4535 190.954 17.4723 185.261 14.7154 181.066C15.7942 180.766 23.046 178.249 25.4433 179.927C25.3834 179.807 24.1248 177.769 16.9929 179.028C15.6144 179.268 14.4158 179.388 13.337 179.388C12.9774 179.028 12.6178 178.728 12.1384 178.369C11.6589 178.009 10.5801 176.631 10.5801 175.852C10.0407 173.574 9.68113 172.076 9.50134 170.877C14.7154 171.237 20.3491 170.098 20.7087 169.978C16.3935 170.338 12.2582 170.098 9.32154 169.079C9.20168 166.862 10.3404 165.363 11.2993 159.25C11.599 155.055 8.78215 152.358 7.82324 148.403C7.88317 147.084 5.48588 138.214 5.06636 137.016C4.94649 135.937 5.00642 135.158 5.36602 134.618C8.1229 131.682 18.0117 137.615 19.7497 139.053C21.248 140.372 22.5666 141.87 23.7652 143.308C24.1847 146.545 23.3457 150.141 21.6076 153.617C21.7275 153.377 24.4844 149.481 24.9638 144.747C25.8628 145.826 26.7019 146.844 27.7207 147.743C33.8338 152.358 34.9725 151.279 41.2055 163.386C40.3664 167.281 37.4897 172.016 33.5941 176.451C33.5941 176.451 39.2277 171.237 42.1644 165.363C42.4041 166.202 43.6627 169.079 43.7825 169.738Z" fill="url(#k)"/><path d="M17.7124 149.421C17.7124 149.421 19.9898 148.882 19.81 144.687C19.7501 142.649 18.7312 135.457 19.4504 140.611C19.87 143.728 20.709 147.923 18.2518 149.421C18.0121 149.601 17.8323 149.601 17.8323 149.601C17.7723 149.601 17.7723 149.541 17.7124 149.421Z" fill="url(#l)"/><path d="M23.6445 162.188C23.7045 162.188 25.3226 160.51 25.3226 160.45C27.3004 158.232 29.1583 155.595 29.5778 152.659C29.8775 150.861 29.5778 147.984 29.6977 149.902C30.0573 155.416 27.4203 158.592 23.7644 162.368C23.7045 162.308 23.7045 162.248 23.6445 162.188Z" fill="url(#m)"/><path d="M25.6846 168.718C29.9398 165.063 34.8542 160.028 35.6932 154.455C34.9741 159.369 31.5579 163.444 27.962 166.861C26.7034 168.059 25.8044 168.898 25.8044 168.898C25.8044 168.838 25.7445 168.778 25.6846 168.718Z" fill="url(#n)"/><path d="M27.96 175.612C32.3949 171.836 37.5491 166.622 39.3471 161.048C39.9464 159.071 39.2871 161.528 38.6279 162.966C36.5902 167.701 31.9754 172.316 28.1398 175.732C28.0199 175.732 28.0199 175.672 27.96 175.612Z" fill="url(#o)"/><path d="M37.2512 187.299C39.8282 184.542 41.6262 181.905 43.4242 178.608C45.5218 174.773 45.2221 175.252 43.4841 178.608C40.2478 184.781 37.0114 188.138 32.5764 192.033C32.1569 191.674 32.2168 192.453 37.2512 187.299Z" fill="url(#p)"/><path d="M34.6123 198.266C39.8863 194.67 43.0028 187.598 46.7186 183.103C43.0627 187.658 40.0661 194.73 34.7921 198.446C34.6722 198.386 34.6722 198.326 34.6123 198.266Z" fill="url(#q)"/><path d="M42.0449 210.551C49.3566 202.82 50.855 200.003 52.2933 195.208C52.3533 194.969 52.4132 194.789 52.4731 194.609C52.5331 194.489 52.593 194.429 52.593 194.429C52.593 194.429 52.5331 194.489 52.4731 194.609C52.4132 194.729 52.3533 194.909 52.2933 195.208C50.6752 201.142 48.3977 203.898 42.2847 210.731C42.1648 210.671 42.1049 210.611 42.0449 210.551Z" fill="url(#r)"/><path d="M46.7769 215.467C46.7769 215.467 50.9122 210.193 51.5115 209.414C55.0475 204.799 56.7256 201.503 55.5869 203.48C53.4893 207.136 50.8522 210.492 48.395 213.729C47.496 214.867 46.9567 215.587 46.9567 215.587C46.9567 215.587 46.8967 215.527 46.7769 215.467Z" fill="url(#s)"/><path d="M56.6074 224.337C56.6074 224.337 56.7273 224.278 56.9071 224.098C59.1845 222.48 59.7239 219.603 59.8438 216.846C59.7838 220.322 59.2444 222.539 56.8472 224.517C56.7872 224.457 56.7273 224.397 56.6074 224.337Z" fill="url(#t)"/><path d="M64.877 230.15C65.1766 229.131 65.5961 228.052 65.8359 226.614C66.3153 224.157 65.716 221.64 65.9557 222.958C66.555 225.895 65.5961 228.532 65.2365 230.27C65.1167 230.27 64.9968 230.21 64.877 230.15Z" fill="url(#u)"/><path d="M19.1496 152.358C17.2318 153.797 13.4561 154.456 9.8002 152.838C8.1221 152.119 12.0177 154.156 15.1941 153.617C16.3328 153.497 17.7112 152.958 18.6702 152.418C18.9099 152.238 19.0298 152.178 19.0298 152.178C19.0897 152.238 19.1496 152.298 19.1496 152.358Z" fill="url(#v)"/><path d="M22.4468 159.311C18.6711 161.528 14.9553 162.188 10.8799 161.708C17.2926 162.667 22.3269 159.071 22.3269 159.071C22.3869 159.131 22.4468 159.251 22.4468 159.311Z" fill="url(#w)"/><path d="M29.818 183.583C29.818 183.583 24.1844 188.018 17.1124 187.358C16.4531 187.298 16.3932 187.298 17.1124 187.358C21.4874 187.658 25.4429 186.28 29.1587 183.762C29.5183 183.523 29.6981 183.403 29.6981 183.403C29.7581 183.403 29.818 183.523 29.818 183.583Z" fill="url(#x)"/><path d="M31.4971 190.595C31.4971 190.595 27.7214 193.652 22.5672 194.012C20.11 194.251 16.6938 193.832 16.6938 193.832C18.0124 193.892 25.0244 195.09 30.7779 190.775C31.1375 190.536 31.3772 190.356 31.3772 190.356C31.4372 190.476 31.4372 190.536 31.4971 190.595Z" fill="url(#y)"/><path d="M36.89 202.281C36.9499 202.281 32.9345 203.42 30.7769 203.839C24.1245 204.978 22.3864 204.439 18.311 202.701C21.7871 204.139 24.0046 204.798 29.0389 204.019C31.7358 203.659 36.89 202.041 36.89 202.041C36.8301 202.101 36.8301 202.161 36.89 202.281Z" fill="url(#z)"/><path d="M40.4851 208.155C39.8259 208.455 34.2522 209.773 29.1579 209.174C26.7607 208.934 20.7075 207.736 26.5809 208.755C34.3121 210.013 39.4663 208.095 40.3653 207.916C40.4252 207.975 40.4252 208.095 40.4851 208.155Z" fill="url(#A)"/><path d="M48.8171 218.164C45.9403 219.303 43.7228 219.722 41.8649 219.782C38.8084 219.962 34.3734 219.482 34.3135 219.422C40.067 219.962 43.1834 220.142 48.6972 217.924C48.6972 217.984 48.7571 218.104 48.8171 218.164Z" fill="url(#B)"/><path d="M54.6904 223.078C54.6904 223.078 51.9335 225.415 44.1423 225.775C42.8238 225.835 41.9248 225.835 41.9248 225.835C46.2999 225.775 50.9746 225.175 54.4506 222.898C54.5705 222.958 54.6304 223.018 54.6904 223.078Z" fill="url(#C)"/><path d="M62.9023 229.191C61.1643 231.768 57.928 231.828 54.5718 232.068C57.868 231.828 60.8647 231.588 62.5428 229.011C62.6626 229.071 62.7825 229.131 62.9023 229.191Z" fill="url(#D)"/><path d="M26.7018 173.574C26.7618 173.574 19.2103 178.368 10.7599 176.51C10.6999 176.51 11.9585 176.75 13.0373 176.81C16.9329 177.17 21.7275 176.271 26.6419 173.334C26.6419 173.394 26.7018 173.514 26.7018 173.574Z" fill="url(#E)"/><path d="M68.7144 232.247C68.4747 232.607 68.175 232.967 67.8154 233.266C59.0653 228.472 50.4351 221.16 45.0412 214.927C27.3612 195.509 29.4588 173.454 20.7687 155.534C16.5734 145.466 6.80447 135.936 5.5459 134.917C6.80447 135.936 16.6933 145.406 21.0683 155.354C30.0582 173.094 28.6797 194.97 46.2998 214.148C51.6337 220.261 60.1441 227.573 68.7144 232.247Z" fill="url(#F)"/><defs><linearGradient id="a" x1="163.394" y1="129.083" x2="239.708" y2="129.083" gradientUnits="userSpaceOnUse"><stop stop-color="#C4CAE9"/><stop offset=".095" stop-color="#CED3ED"/><stop offset=".409" stop-color="#E9EBF7"/><stop offset=".687" stop-color="#F9FAFD" stop-opacity="0"/><stop offset=".899" stop-color="#fff" stop-opacity="0"/></linearGradient><linearGradient id="b" x1="160.999" y1="47.317" x2="206.578" y2="47.317" gradientUnits="userSpaceOnUse"><stop stop-color="#C4CAE9"/><stop offset=".095" stop-color="#CED3ED"/><stop offset=".409" stop-color="#E9EBF7"/><stop offset=".687" stop-color="#F9FAFD" stop-opacity="0"/><stop offset=".899" stop-color="#fff" stop-opacity="0"/></linearGradient><linearGradient id="c" x1="167.706" y1="31.639" x2="166.28" y2="55.392" gradientUnits="userSpaceOnUse"><stop stop-color="#FFA100"/><stop offset="1" stop-color="#FFCC03"/></linearGradient><linearGradient id="d" x1="159.572" y1="22.168" x2="162.438" y2="61.093" gradientUnits="userSpaceOnUse"><stop stop-color="#FF4D00"/><stop offset="1" stop-color="#FF8484"/></linearGradient><linearGradient id="e" x1="159.572" y1="15.325" x2="162.438" y2="54.251" gradientUnits="userSpaceOnUse"><stop stop-color="#FF4D00"/><stop offset="1" stop-color="#FF8484"/></linearGradient><linearGradient id="f" x1="145.495" y1="33.357" x2="148.239" y2="58.705" gradientUnits="userSpaceOnUse"><stop stop-color="#FF4D00"/><stop offset="1" stop-color="#FF8484"/></linearGradient><linearGradient id="g" x1="174.123" y1="29.117" x2="177.193" y2="59.919" gradientUnits="userSpaceOnUse"><stop stop-color="#FF4D00"/><stop offset="1" stop-color="#FF8484"/></linearGradient><linearGradient id="h" x1="47.545" y1="259.924" x2="113.958" y2="259.924" gradientUnits="userSpaceOnUse"><stop stop-color="#C4CAE9"/><stop offset=".095" stop-color="#CED3ED"/><stop offset=".409" stop-color="#E9EBF7"/><stop offset=".687" stop-color="#F9FAFD" stop-opacity="0"/><stop offset=".899" stop-color="#fff" stop-opacity="0"/></linearGradient><linearGradient id="i" x1="65.145" y1="232.058" x2="65.145" y2="71.93" gradientUnits="userSpaceOnUse"><stop offset=".013" stop-color="#0065AC"/><stop offset=".233" stop-color="#1D9EF9"/><stop offset=".445" stop-color="#5FBDFF"/><stop offset=".789" stop-color="#5FBDFF"/><stop offset="1" stop-color="#B8D3E7"/></linearGradient><linearGradient id="j" x1="86.971" y1="234.275" x2="107.553" y2="113.539" gradientUnits="userSpaceOnUse"><stop stop-color="#065DC3"/><stop offset=".233" stop-color="#1D9EF9"/><stop offset=".445" stop-color="#5FBDFF"/><stop offset=".789" stop-color="#5FBDFF"/><stop offset="1" stop-color="#B8D3E7"/></linearGradient><linearGradient id="k" x1="72.769" y1="244.096" x2="11.021" y2="113.497" gradientUnits="userSpaceOnUse"><stop offset=".013" stop-color="#065DC3"/><stop offset=".233" stop-color="#1D9EF9"/><stop offset=".445" stop-color="#5FBDFF"/><stop offset=".789" stop-color="#5FBDFF"/><stop offset="1" stop-color="#B8D3E7"/></linearGradient><linearGradient id="l" x1="18.823" y1="149.603" x2="18.823" y2="138.784" gradientUnits="userSpaceOnUse"><stop offset=".013" stop-color="#0065AC"/><stop offset=".233" stop-color="#1D9EF9"/><stop offset=".445" stop-color="#5FBDFF"/><stop offset=".789" stop-color="#5FBDFF"/><stop offset="1" stop-color="#B8D3E7"/></linearGradient><linearGradient id="m" x1="26.685" y1="162.37" x2="26.685" y2="149.265" gradientUnits="userSpaceOnUse"><stop offset=".013" stop-color="#0065AC"/><stop offset=".233" stop-color="#1D9EF9"/><stop offset=".445" stop-color="#5FBDFF"/><stop offset=".789" stop-color="#5FBDFF"/><stop offset="1" stop-color="#B8D3E7"/></linearGradient><linearGradient id="n" x1="30.685" y1="168.9" x2="30.685" y2="154.451" gradientUnits="userSpaceOnUse"><stop offset=".013" stop-color="#0065AC"/><stop offset=".233" stop-color="#1D9EF9"/><stop offset=".445" stop-color="#5FBDFF"/><stop offset=".789" stop-color="#5FBDFF"/><stop offset="1" stop-color="#B8D3E7"/></linearGradient><linearGradient id="o" x1="33.767" y1="175.734" x2="33.767" y2="160.305" gradientUnits="userSpaceOnUse"><stop offset=".013" stop-color="#0065AC"/><stop offset=".233" stop-color="#1D9EF9"/><stop offset=".445" stop-color="#5FBDFF"/><stop offset=".789" stop-color="#5FBDFF"/><stop offset="1" stop-color="#B8D3E7"/></linearGradient><linearGradient id="p" x1="38.651" y1="192.035" x2="38.651" y2="175.905" gradientUnits="userSpaceOnUse"><stop offset=".013" stop-color="#0065AC"/><stop offset=".233" stop-color="#1D9EF9"/><stop offset=".445" stop-color="#5FBDFF"/><stop offset=".789" stop-color="#5FBDFF"/><stop offset="1" stop-color="#B8D3E7"/></linearGradient><linearGradient id="q" x1="40.661" y1="198.448" x2="40.661" y2="183.099" gradientUnits="userSpaceOnUse"><stop offset=".013" stop-color="#0065AC"/><stop offset=".233" stop-color="#1D9EF9"/><stop offset=".445" stop-color="#5FBDFF"/><stop offset=".789" stop-color="#5FBDFF"/><stop offset="1" stop-color="#B8D3E7"/></linearGradient><linearGradient id="r" x1="47.315" y1="210.733" x2="47.315" y2="194.425" gradientUnits="userSpaceOnUse"><stop offset=".013" stop-color="#0065AC"/><stop offset=".233" stop-color="#1D9EF9"/><stop offset=".445" stop-color="#5FBDFF"/><stop offset=".789" stop-color="#5FBDFF"/><stop offset="1" stop-color="#B8D3E7"/></linearGradient><linearGradient id="s" x1="51.355" y1="215.588" x2="51.355" y2="202.892" gradientUnits="userSpaceOnUse"><stop offset=".013" stop-color="#0065AC"/><stop offset=".233" stop-color="#1D9EF9"/><stop offset=".445" stop-color="#5FBDFF"/><stop offset=".789" stop-color="#5FBDFF"/><stop offset="1" stop-color="#B8D3E7"/></linearGradient><linearGradient id="t" x1="58.224" y1="224.518" x2="58.224" y2="216.844" gradientUnits="userSpaceOnUse"><stop offset=".013" stop-color="#0065AC"/><stop offset=".233" stop-color="#1D9EF9"/><stop offset=".445" stop-color="#5FBDFF"/><stop offset=".789" stop-color="#5FBDFF"/><stop offset="1" stop-color="#B8D3E7"/></linearGradient><linearGradient id="u" x1="65.512" y1="230.271" x2="65.512" y2="222.593" gradientUnits="userSpaceOnUse"><stop offset=".013" stop-color="#0065AC"/><stop offset=".233" stop-color="#1D9EF9"/><stop offset=".445" stop-color="#5FBDFF"/><stop offset=".789" stop-color="#5FBDFF"/><stop offset="1" stop-color="#B8D3E7"/></linearGradient><linearGradient id="v" x1="14.269" y1="153.783" x2="14.269" y2="152.178" gradientUnits="userSpaceOnUse"><stop offset=".013" stop-color="#0065AC"/><stop offset=".233" stop-color="#1D9EF9"/><stop offset=".445" stop-color="#5FBDFF"/><stop offset=".789" stop-color="#5FBDFF"/><stop offset="1" stop-color="#B8D3E7"/></linearGradient><linearGradient id="w" x1="16.659" y1="161.871" x2="16.659" y2="159.07" gradientUnits="userSpaceOnUse"><stop offset=".013" stop-color="#0065AC"/><stop offset=".233" stop-color="#1D9EF9"/><stop offset=".445" stop-color="#5FBDFF"/><stop offset=".789" stop-color="#5FBDFF"/><stop offset="1" stop-color="#B8D3E7"/></linearGradient><linearGradient id="x" x1="23.202" y1="187.426" x2="23.202" y2="183.402" gradientUnits="userSpaceOnUse"><stop offset=".013" stop-color="#0065AC"/><stop offset=".233" stop-color="#1D9EF9"/><stop offset=".445" stop-color="#5FBDFF"/><stop offset=".789" stop-color="#5FBDFF"/><stop offset="1" stop-color="#B8D3E7"/></linearGradient><linearGradient id="y" x1="24.09" y1="194.086" x2="24.09" y2="190.355" gradientUnits="userSpaceOnUse"><stop offset=".013" stop-color="#0065AC"/><stop offset=".233" stop-color="#1D9EF9"/><stop offset=".445" stop-color="#5FBDFF"/><stop offset=".789" stop-color="#5FBDFF"/><stop offset="1" stop-color="#B8D3E7"/></linearGradient><linearGradient id="z" x1="27.594" y1="204.439" x2="27.594" y2="202.041" gradientUnits="userSpaceOnUse"><stop offset=".013" stop-color="#0065AC"/><stop offset=".233" stop-color="#1D9EF9"/><stop offset=".445" stop-color="#5FBDFF"/><stop offset=".789" stop-color="#5FBDFF"/><stop offset="1" stop-color="#B8D3E7"/></linearGradient><linearGradient id="A" x1="32.283" y1="209.329" x2="32.283" y2="207.915" gradientUnits="userSpaceOnUse"><stop offset=".013" stop-color="#0065AC"/><stop offset=".233" stop-color="#1D9EF9"/><stop offset=".445" stop-color="#5FBDFF"/><stop offset=".789" stop-color="#5FBDFF"/><stop offset="1" stop-color="#B8D3E7"/></linearGradient><linearGradient id="B" x1="41.56" y1="219.822" x2="41.56" y2="217.924" gradientUnits="userSpaceOnUse"><stop offset=".013" stop-color="#0065AC"/><stop offset=".233" stop-color="#1D9EF9"/><stop offset=".445" stop-color="#5FBDFF"/><stop offset=".789" stop-color="#5FBDFF"/><stop offset="1" stop-color="#B8D3E7"/></linearGradient><linearGradient id="C" x1="48.303" y1="225.835" x2="48.303" y2="222.897" gradientUnits="userSpaceOnUse"><stop offset=".013" stop-color="#0065AC"/><stop offset=".233" stop-color="#1D9EF9"/><stop offset=".445" stop-color="#5FBDFF"/><stop offset=".789" stop-color="#5FBDFF"/><stop offset="1" stop-color="#B8D3E7"/></linearGradient><linearGradient id="D" x1="58.734" y1="232.068" x2="58.734" y2="229.01" gradientUnits="userSpaceOnUse"><stop offset=".013" stop-color="#0065AC"/><stop offset=".233" stop-color="#1D9EF9"/><stop offset=".445" stop-color="#5FBDFF"/><stop offset=".789" stop-color="#5FBDFF"/><stop offset="1" stop-color="#B8D3E7"/></linearGradient><linearGradient id="E" x1="18.724" y1="176.939" x2="18.724" y2="173.333" gradientUnits="userSpaceOnUse"><stop offset=".013" stop-color="#0065AC"/><stop offset=".233" stop-color="#1D9EF9"/><stop offset=".445" stop-color="#5FBDFF"/><stop offset=".789" stop-color="#5FBDFF"/><stop offset="1" stop-color="#B8D3E7"/></linearGradient><linearGradient id="F" x1="37.107" y1="233.28" x2="37.107" y2="134.895" gradientUnits="userSpaceOnUse"><stop offset=".013" stop-color="#0065AC"/><stop offset=".233" stop-color="#1D9EF9"/><stop offset=".445" stop-color="#5FBDFF"/><stop offset=".789" stop-color="#5FBDFF"/><stop offset="1" stop-color="#B8D3E7"/></linearGradient></defs></svg>