<svg width="317" height="441" viewBox="0 0 317 441" fill="none" xmlns="http://www.w3.org/2000/svg"><path d="M92.6379 354.244C112.883 342.588 145.603 342.588 165.849 354.244C175.869 359.97 180.777 367.741 180.981 375.308L180.777 356.689C180.777 349.122 175.664 341.351 165.644 335.625C145.399 323.969 112.679 323.969 92.4334 335.625C82.2084 341.556 77.0959 349.327 77.0959 356.893L77.3004 375.513C77.3004 367.742 82.4129 359.97 92.6379 354.244Z" fill="url(#a)"/><path d="M282.479 357.837C281.18 355.599 279.695 353.549 278.025 351.497C271.9 345.344 286.005 335.089 292.501 331.359C292.687 331.359 274.684 318.307 274.684 318.307H230.14C226.428 313.645 213.808 309.356 213.808 306H187.268C187.268 310.289 185.412 319.985 178.173 324.274C176.689 325.206 174.833 325.765 172.791 326.138C169.079 326.884 165.367 327.817 161.841 328.749C161.655 328.749 161.47 328.749 161.284 328.749C157.758 327.63 154.046 326.884 150.334 326.138C138.456 324.274 136.043 311.221 136.043 306H109.502C109.502 310.289 107.646 319.985 100.408 324.274C98.9234 325.206 97.0675 325.765 95.0259 326.138C91.314 326.884 87.602 327.817 84.0757 328.749C71.8263 331.359 55.8649 324.087 49.5546 320.358L27.8396 319.239C34.1499 322.968 51.225 345.157 45.1003 351.311C43.2443 353.362 41.7595 355.6 40.4603 357.651C39.9036 358.77 38.79 359.888 37.3052 360.821C30.0669 365.109 13.3632 366.042 5.75369 366.042L0 374.246C9.09426 374.246 41.7595 372.941 44.7291 379.84C46.0283 382.077 43.0587 394.198 44.7291 396.249C50.8538 402.402 35.2634 410.606 28.7675 414.336L47.5128 425.337C48.2552 424.964 48.9976 424.591 49.9256 424.032L47.6984 425.337L109.502 426.456C113.029 431.117 114.142 437.643 113.957 440.813L208.054 441L234.038 426.456H268.188L291.944 416.387C285.634 412.658 271.529 402.402 277.653 396.249C278.767 394.943 279.695 393.638 280.623 392.333H298.069L316.814 381.518L317 366.042C307.349 366.415 285.449 364.736 282.479 357.837Z" fill="url(#b)"/><path d="M231 319.502L230.793 310C224.793 313.533 213 321.847 213 328.497L213.207 338C213.207 331.349 225 322.828 231 319.502Z" fill="#B9BFE8"/><path d="M43.1057 391.197C49.8474 397.96 34.3211 409.232 27.1709 413.331L47.8045 425.219C54.9547 421.12 74.3625 412.102 86.0071 415.996C89.8887 417.226 93.9745 418.046 98.0604 418.866C111.135 420.915 113.791 435.261 113.791 441H143.005C143.413 436.081 145.048 425.424 153.015 420.915C154.649 419.89 156.692 419.275 158.94 418.866C163.025 418.046 167.111 417.021 170.993 415.996C182.638 412.102 202.045 421.12 208.991 425.219L229.625 413.331C222.679 409.232 207.153 397.96 213.894 391.197C215.937 388.943 217.572 386.483 219.002 384.228C219.614 382.999 220.84 381.769 222.475 380.744C230.442 376.03 248.828 375.006 257 375.006V354.153C246.377 354.563 222.27 356.355 219.002 348.772C217.572 346.312 215.937 344.058 214.099 341.803C207.357 335.04 222.883 323.768 230.033 319.669L209.4 307.781C202.25 311.88 182.842 320.898 171.197 317.004C167.316 315.774 163.23 314.955 159.144 314.135C146.069 312.085 143.413 297.739 143.413 292H114.199C114.199 296.714 112.157 307.371 104.189 312.085C102.555 313.11 100.512 313.725 98.2647 314.135C94.1789 314.955 90.093 315.979 86.2115 317.004C72.7282 319.873 55.159 311.88 48.213 307.781L27.5795 319.669C34.5254 323.768 50.0517 335.04 43.31 341.803C41.2671 344.058 39.6328 346.517 38.2027 348.772C37.5898 350.001 36.3641 351.231 34.7297 352.256C26.7623 356.97 8.37599 355.113 0 355.113V375.006C10.0103 375.006 34.7297 376.645 37.9984 384.228C39.6328 386.688 41.2671 388.943 43.1057 391.197ZM92.3402 345.288C112.565 333.605 145.252 333.605 165.477 345.288C185.702 356.97 185.498 376.03 165.273 387.712C145.048 399.395 112.361 399.395 92.1359 387.712C71.911 376.03 72.1153 357.175 92.3402 345.288Z" fill="#C8DCEA"/><path d="M229 413.254V403L209 414.747L209.196 425L229 413.254Z" fill="#A6C4D9"/><path d="M43.1057 381.531C49.8474 388.249 34.3211 399.446 27.1709 403.517L47.8045 415.325C54.9547 411.253 74.3625 402.296 86.0071 406.164C89.8887 407.385 93.9745 408.2 98.0604 409.014C111.135 411.05 113.791 425.3 113.791 431H143.005C143.413 426.114 145.048 415.529 153.015 411.05C154.649 410.032 156.692 409.421 158.94 409.014C163.025 408.2 167.111 407.182 170.993 406.164C182.638 402.296 202.045 411.253 208.991 415.325L229.625 403.517C222.679 399.446 207.153 388.249 213.894 381.531C215.937 379.292 217.572 376.849 219.002 374.609C219.614 373.388 220.84 372.167 222.475 371.149C230.442 366.466 248.828 365.448 257 365.448V348.552C246.377 348.959 222.27 346.923 219.002 339.391C217.572 336.948 215.937 334.709 214.099 332.469C207.357 325.751 222.883 314.554 230.033 310.483L209.4 298.675C202.25 302.747 182.842 311.704 171.197 307.836C167.316 306.615 163.23 305.801 159.144 304.986C146.069 302.951 143.413 288.7 143.413 283H114.199C114.199 287.682 112.157 298.268 104.189 302.951C102.555 303.968 100.512 304.579 98.2647 304.986C94.1789 305.801 90.093 306.818 86.2115 307.836C72.7282 310.686 55.159 302.747 48.213 298.675L27.5795 310.483C34.5254 314.554 50.0517 325.751 43.31 332.469C41.2671 334.709 39.6328 337.151 38.2027 339.391C37.5898 340.612 36.3641 341.834 34.7297 342.852C26.7623 347.534 8.37599 348.552 0 348.552V365.448C10.0103 365.448 34.7297 367.077 37.9984 374.609C39.6328 377.052 41.2671 379.292 43.1057 381.531ZM92.3402 335.93C112.565 324.326 145.252 324.326 165.477 335.93C185.702 347.534 185.498 366.466 165.273 378.07C145.048 389.674 112.361 389.674 92.1359 378.07C71.911 366.466 72.1153 347.737 92.3402 335.93Z" fill="#fff"/><path d="M99.1268 324.189C124.218 309.74 164.929 309.74 190.02 324.189C202.615 331.413 208.863 340.981 208.863 350.451C208.863 359.921 202.615 369.489 190.02 376.714C164.929 391.163 124.218 391.163 99.1268 376.714C74.0359 362.167 74.0359 338.736 99.1268 324.189Z" fill="url(#c)"/><path d="M84.6776 315.89C109.768 301.441 150.48 301.441 175.571 315.89C188.165 323.115 194.414 332.683 194.414 342.153C194.414 351.623 188.165 361.191 175.571 368.415C150.48 382.865 109.768 382.865 84.6776 368.415C59.5866 353.868 59.5866 330.34 84.6776 315.89Z" fill="#F6F6FB"/><path d="M175.669 368.415C150.578 382.865 109.866 382.865 84.775 368.415C72.2783 361.191 65.9324 351.721 65.9324 342.153V350.451C65.9324 359.922 72.1807 369.392 84.775 376.714C109.866 391.163 150.578 391.163 175.669 376.714C188.165 369.489 194.511 360.019 194.511 350.451V342.055C194.511 351.623 188.165 361.093 175.669 368.415Z" fill="url(#d)"/><path d="M213.309 75.7675V180.269C213.309 183.418 209.949 185.308 207.22 183.768L98.2504 120.844C94.0512 118.394 91.4617 113.984 91.4617 109.085V4.65363C91.4617 1.50389 94.821 -0.385944 97.5505 1.15392L206.52 64.0785C210.719 66.4583 213.309 70.938 213.309 75.7675Z" fill="#E6E7F5"/><path d="M210.439 77.4481V181.949C210.439 185.099 207.08 186.989 204.35 185.449L95.3808 122.524C91.1816 120.074 88.592 115.665 88.592 110.765V6.33417C88.592 3.18444 91.9514 1.2946 94.6809 2.83447L203.65 65.7591C207.85 68.1389 210.439 72.6185 210.439 77.4481Z" fill="url(#e)"/><mask id="f" maskUnits="userSpaceOnUse" x="88" y="2" width="150" height="204"><path d="M88 115.127C88 118.746 90.5778 123.182 93.7413 125.05L231.416 204.199C234.58 206.067 237.158 204.549 237.158 200.93V92.2457C237.158 88.6268 234.58 84.1907 231.416 82.3228L93.7413 3.17332C90.5778 1.30548 88 2.8231 88 6.44203V115.127Z" fill="#F6F7FB"/></mask><g mask="url(#f)"><path d="M246.134 207.626C246.134 214.063 241.507 216.678 235.875 213.459L97.8874 133.805C92.2553 130.587 87.6292 122.742 87.6292 116.104V9.09328C87.6292 2.65654 92.2553 0.041319 97.8874 3.25969L235.875 82.9145C241.507 86.1329 246.134 93.9777 246.134 100.616V207.626Z" fill="url(#g)"/><path d="M138.319 94.1783L102.716 73.6613V32.6273L138.319 53.1443V94.1783Z" fill="#066BC6"/><path d="M115.589 31.8225L102.716 24.3801V19.5527L115.589 26.9951V31.8225zM132.083 41.2766L119.209 34.0351V29.2078L132.083 36.4488V41.2766zM238.49 114.293L155.617 66.6209V62.3971L238.49 110.069V114.293zM225.416 117.914L168.692 85.1266V80.9028L225.416 113.69V117.914z" fill="#91CEFC"/><path d="M197.054 112.483C184.381 105.242 174.324 111.075 174.324 125.558C174.324 131.19 175.933 137.224 178.548 143.057L197.255 138.834V112.483H197.054Z" fill="#1D9EF9"/><path d="M197.054 112.483V138.833L178.347 143.057C182.37 152.31 189.209 160.557 197.054 164.983C209.726 172.224 219.784 166.391 219.784 151.908C219.784 137.425 209.726 119.724 197.054 112.483Z" fill="#91CEFC"/></g><path d="M235.517 79.9879C238.681 81.8558 241.259 86.2919 241.259 89.9108V198.595C241.259 200.463 240.555 201.864 239.384 202.331L235.634 204.432C236.572 203.849 237.158 202.565 237.158 200.814V92.2456C237.158 88.6267 234.58 84.1906 231.416 82.3227L93.7414 3.17318C92.2182 2.356 90.8121 2.23926 89.8748 2.70622L93.6242 0.488162C94.6787 -0.212276 96.2019 -0.212276 97.8423 0.838382" fill="#BCE1FD"/><path d="M119.102 86.7835C111.421 82.3581 105.159 85.9485 105.159 94.8829 105.159 103.817 111.421 114.588 119.102 119.014 126.783 123.439 133.045 119.849 133.045 110.915 133.045 101.98 126.867 91.2089 119.102 86.7835zM119.102 115.256C113.174 111.833 108.416 103.567 108.416 96.7198 108.416 89.8729 113.174 87.1175 119.102 90.5409 125.03 93.9644 129.789 102.231 129.789 109.078 129.789 115.841 125.03 118.596 119.102 115.256zM119.962 50.4059C112.281 45.9805 106.019 49.571 106.019 58.5053 106.019 67.4396 112.281 78.2109 119.962 82.6363 127.643 87.0617 133.905 83.4713 133.905 74.537 133.905 65.6861 127.643 54.9149 119.962 50.4059zM119.962 78.8789C114.034 75.4555 109.275 67.1891 109.275 60.3422 109.275 53.4954 114.034 50.7399 119.962 54.1634 125.89 57.5868 130.649 65.8532 130.649 72.7 130.649 79.5469 125.89 82.3023 119.962 78.8789z" fill="#1D9EF9"/><path d="M128.812 64.6837L131.484 64.0992C128.979 58.4213 124.721 53.161 119.962 50.4055V54.1629C123.635 56.3339 126.892 60.3418 128.812 64.6837Z" fill="#F6F7FB"/><path opacity=".4" d="M166.409 317.489C149.243 327.576 121.447 327.489 104.194 317.314C86.9411 307.226 86.854 290.824 104.02 280.824C121.185 270.737 148.982 270.825 166.234 281C183.487 291.087 183.574 307.402 166.409 317.489Z" fill="url(#h)"/><path d="M104.79 294.385C104.79 284.101 111.353 283.833 111.353 283.833C111.353 283.833 114.835 283.833 120.729 281.429C126.354 279.025 134.39 279.96 129.97 288.241C129.97 288.375 129.836 288.375 129.836 288.508C129.568 288.909 129.033 289.31 128.363 289.844L114.032 298.259C111.755 299.327 104.79 296.522 104.79 294.385Z" fill="url(#i)"/><path d="M104.79 293.45C104.924 295.587 111.755 298.392 113.898 297.19L128.229 288.775C128.765 288.508 129.568 287.974 130.238 287.306C130.104 287.573 129.97 287.84 129.836 288.107C129.836 288.241 129.702 288.241 129.702 288.375C129.434 288.775 128.899 289.176 128.229 289.71L113.898 298.125C111.889 299.327 105.594 296.789 104.79 294.786C104.79 294.652 104.79 294.519 104.79 294.385C104.79 293.984 104.79 293.717 104.79 293.45Z" fill="#1E1C6B"/><path d="M107.469 282.364C109.21 282.364 115.103 283.833 115.103 283.833C115.103 283.833 115.103 284.635 115.639 285.303L115.773 285.436C116.978 286.238 118.184 287.573 115.371 289.31C113.094 290.779 111.219 289.844 110.416 288.909C110.014 288.241 109.478 287.44 108.808 287.039C108.005 286.638 107.603 286.371 107.201 286.371V286.238C107.201 286.238 106.665 282.364 107.469 282.364Z" fill="#fff"/><path d="M107.334 181.655C113.763 181.788 129.969 182.055 136.398 182.189C133.987 201.556 129.166 219.187 125.951 238.02C122.469 256.318 118.585 269.141 115.102 284.367C113.897 287.172 108.138 286.104 106.932 283.432C105.995 269.408 104.923 252.445 109.209 236.283C108.54 218.653 106.932 199.152 107.334 181.655Z" fill="#364364"/><path d="M137.337 313.351C137.337 303.066 143.9 302.799 143.9 302.799C143.9 302.799 147.382 302.799 153.275 300.395C158.901 297.991 166.937 298.926 162.517 307.207C162.517 307.34 162.383 307.34 162.383 307.474C162.115 307.875 161.58 308.275 160.91 308.81L146.579 317.224C144.436 318.293 137.471 315.488 137.337 313.351Z" fill="url(#j)"/><path d="M137.471 312.416C137.605 314.553 144.436 317.358 146.579 316.156L160.91 307.741C161.445 307.474 162.249 306.94 162.919 306.272C162.785 306.539 162.651 306.806 162.517 307.073C162.517 307.207 162.383 307.207 162.383 307.34C162.115 307.741 161.579 308.142 160.91 308.676L146.579 317.091C144.57 318.293 138.275 315.755 137.471 313.751C137.471 313.618 137.471 313.484 137.471 313.351C137.337 312.95 137.471 312.683 137.471 312.416Z" fill="#1E1C6B"/><path d="M140.016 301.33C141.757 301.33 147.651 302.799 147.651 302.799C147.651 302.799 147.651 303.601 148.186 304.269L148.32 304.402C149.526 305.203 150.731 306.539 147.919 308.276C145.642 309.745 143.767 308.81 142.963 307.875C142.561 307.207 142.025 306.406 141.356 306.005C140.552 305.604 140.15 305.337 139.748 305.337V305.203C139.748 305.203 139.347 301.33 140.016 301.33Z" fill="#fff"/><path d="M127.828 227.735C126.087 219.454 105.595 218.386 106.934 185.528C113.363 184.593 145.642 199.686 152.071 198.751C152.874 218.252 150.999 236.417 150.865 255.517C150.464 274.083 148.722 287.439 147.785 302.933C146.981 305.871 141.222 305.738 139.615 303.334C136.4 289.71 132.65 273.014 134.123 256.452C132.248 247.236 129.971 237.485 127.828 227.735Z" fill="url(#k)"/><path d="M117.798 203.789C125.692 220.216 131.833 239.754 131.115 256.978C130.557 269.817 136.112 293.224 136.59 306.063C136.829 314.515 152.588 310.808 152.349 302.355C151.871 289.197 152.885 267.823 153.363 254.666C154.081 236.723 158.788 209.108 150.495 192.043C146.667 184.069 124.815 196.373 128.643 204.427L117.798 203.789Z" fill="#364364"/><path d="M106.254 182.773C109.683 193.459 106.015 160.382 105.138 196.678C105.855 203.217 106.972 238.238 106.254 244.777C104.659 257.775 104.978 275.16 105.138 288.317C105.217 296.77 119.984 291.889 119.904 285.669C121.758 271.764 123.877 255.338 125.472 242.101C126.27 235.402 126.27 211.365 125.472 204.746C124.117 193.024 126.908 196.054 123.319 184.65C120.608 176.517 103.622 174.64 106.254 182.773Z" fill="#364364"/><path d="M121.8 121.818C99.031 137.044 96.3523 167.23 108.674 186.33C108.54 186.33 105.996 143.99 121.8 121.818Z" fill="#FFA100"/><path fill-rule="evenodd" clip-rule="evenodd" d="M147.034 103.856C146.801 103.112 146.741 102.003 146.741 100.606C146.741 100.176 146.731 99.7288 146.721 99.313C146.716 99.0625 146.71 98.8233 146.708 98.606C146.7 97.9891 146.711 97.4882 146.767 97.0905C146.825 96.6772 146.915 96.5134 146.957 96.4631C146.968 96.4495 146.972 96.4477 146.979 96.4448L146.979 96.4447C146.991 96.4396 147.042 96.4203 147.16 96.4203C147.74 96.4203 148.839 96.8636 149.848 97.749C150.842 98.6222 151.456 99.6679 151.456 100.606C151.456 101.612 150.926 102.618 150.114 103.405C149.281 104.213 148.345 104.603 147.772 104.603C147.539 104.603 147.436 104.541 147.366 104.478C147.272 104.392 147.146 104.214 147.034 103.856ZM147.772 105.68C145.876 105.68 145.664 103.367 145.664 100.606C145.664 100.183 145.655 99.7652 145.646 99.3619C145.595 97.137 145.555 95.3439 147.16 95.3439C149.057 95.3439 152.532 97.8461 152.532 100.606C152.532 103.367 149.669 105.68 147.772 105.68Z" fill="#364364"/><path d="M120.729 204.094C134.658 211.841 149.123 211.841 154.079 202.358C152.204 184.594 150.463 170.168 154.079 153.072C153.008 143.722 152.338 142.253 153.543 136.777C153.141 134.907 147.382 131.034 143.364 127.294C138.944 123.287 135.864 119.413 133.587 118.879C112.552 113.943 103.249 157.97 104.723 194.032C106.062 203.516 113.898 200.354 120.729 204.094Z" fill="#FFCC03"/><path d="M123.006 121.016C127.158 118.078 126.488 116.074 125.952 112.067 125.149 109.93 124.747 107.66 124.747 105.122 124.747 96.1729 130.506 88.4261 137.471 88.8268 151.668 89.7617 149.123 97.2415 149.123 106.19 149.123 114.472 145.373 120.215 138.944 121.15 138.944 122.486 139.346 123.287 141.087 125.023 136.399 127.828 129.702 126.493 127.024 125.29 124.077 124.088 120.997 123.02 123.006 121.016zM174.571 142.653C174.571 139.181 175.24 137.177 176.714 136.509 176.982 135.708 177.383 134.773 177.651 133.971 179.392 129.029 185.018 124.755 186.223 125.957 186.893 126.625 184.08 128.896 182.607 131.167 181.669 132.769 181.669 133.571 181.402 134.906 181.402 134.906 188.098 135.574 188.098 141.05 188.098 145.592 185.687 143.722 185.687 142.92 183.946 147.462 181.937 144.79 181.134 148.53L173.901 145.325C173.767 145.191 174.035 144.122 174.571 142.653z" fill="#FCD1A9"/><path d="M136.789 78C130.12 78 125.815 81.1659 124.083 82.9967 122.351 84.8275 121.216 87.3992 120.534 89.5397 117.97 97.2393 119.755 103.164 121.201 105.897 122.646 108.63 126.297 112.74 126.126 115.221 132.024 114.964 130.021 117.43 133.782 114.093 136.517 111.698 138.517 108.455 139.201 107.343 137.184 106.189 136.89 105.455 137.539 100.956 138.187 96.4574 143.265 101.479 143.094 103.446 144.633 102.676 146.86 99.6348 146.774 95.9561 152.072 91.9883 154.125 92.4057 152.178 87.21 150.231 82.0143 143.458 78 136.789 78zM148.934 109.94C148.864 114.74 147.171 120.271 144.491 120.271L139.201 120.906 139.907 118.153C140.048 117.659 140.753 107.353 141.458 106.789 142.446 105.942 143.433 110.953 145.266 112.436 145.972 111.377 147.524 110.717 148.934 109.94z" fill="#364364"/><path d="M151.452 98.0972L141.74 98.9363L142.391 100.725L152.533 101.364L151.452 98.0972Z" fill="#364364"/><path d="M139.882 146.928C141.489 155.209 143.498 174.71 154.079 178.584C164.928 176.847 180.063 153.874 181.67 148.264L173.5 144.791C168.41 152.805 163.187 155.477 157.294 161.487C156.758 155.076 155.285 143.856 153.41 136.777C150.865 129.832 137.605 134.64 139.882 146.928Z" fill="#FFA100"/><defs><linearGradient id="a" x1="77.173" y1="366.435" x2="180.834" y2="366.435" gradientUnits="userSpaceOnUse"><stop stop-color="#B9BFE8"/><stop offset="1" stop-color="#D8DFF6"/></linearGradient><linearGradient id="b" x1="5.533" y1="373.779" x2="316.953" y2="373.779" gradientUnits="userSpaceOnUse"><stop stop-color="#D7ECFF"/><stop offset=".271" stop-color="#D7ECFF"/><stop offset="1" stop-color="#F2F4F9"/></linearGradient><linearGradient id="c" x1="80.304" y1="350.462" x2="208.89" y2="350.462" gradientUnits="userSpaceOnUse"><stop stop-color="#C2C9EB"/><stop offset=".233" stop-color="#C7CEED"/><stop offset=".524" stop-color="#D7DBF2"/><stop offset=".843" stop-color="#F0F2FA"/><stop offset="1" stop-color="#fff"/></linearGradient><linearGradient id="d" x1="142.104" y1="364.815" x2="121.437" y2="364.815" gradientUnits="userSpaceOnUse"><stop stop-color="#C8DCEA"/><stop offset="1" stop-color="#ECF6FF"/></linearGradient><linearGradient id="e" x1="203.112" y1="29.231" x2="70.821" y2="189.504" gradientUnits="userSpaceOnUse"><stop stop-color="#5B68F5"/><stop offset="1" stop-color="#010854"/></linearGradient><linearGradient id="g" x1="105.418" y1="-20.006" x2="105.75" y2="222.316" gradientUnits="userSpaceOnUse"><stop stop-color="#1D9EF9"/><stop offset="1" stop-color="#0559B2"/></linearGradient><linearGradient id="h" x1="91.171" y1="299.143" x2="179.187" y2="299.143" gradientUnits="userSpaceOnUse"><stop stop-color="#C8DCEA"/><stop offset="1" stop-color="#D7ECFF" stop-opacity="0"/></linearGradient><linearGradient id="i" x1="131.282" y1="289.395" x2="104.838" y2="289.395" gradientUnits="userSpaceOnUse"><stop stop-color="#5A678A"/><stop offset=".146" stop-color="#364364"/><stop offset=".459" stop-color="#485475"/><stop offset=".804" stop-color="#364364"/><stop offset="1" stop-color="#364364"/></linearGradient><linearGradient id="j" x1="163.829" y1="308.361" x2="137.385" y2="308.361" gradientUnits="userSpaceOnUse"><stop stop-color="#5A678A"/><stop offset=".146" stop-color="#364364"/><stop offset=".459" stop-color="#485475"/><stop offset=".804" stop-color="#364364"/><stop offset="1" stop-color="#364364"/></linearGradient><linearGradient id="k" x1="152.331" y1="245.384" x2="106.954" y2="245.384" gradientUnits="userSpaceOnUse"><stop stop-color="#5A678A"/><stop offset=".146" stop-color="#364364"/><stop offset=".459" stop-color="#485475"/><stop offset=".804" stop-color="#364364"/><stop offset="1" stop-color="#364364"/></linearGradient></defs></svg>